<svg width="50" height="50" viewBox="0 0 50 50" fill="none" xmlns="http://www.w3.org/2000/svg">
<rect width="50" height="50" fill="white"/>
<path d="M27.7178 5.17983C32.1498 5.77913 35.9408 7.6746 39.1463 10.8941C42.0732 13.807 43.9268 17.2913 44.7491 21.3749C45.0836 23.0892 45.0836 27.0056 44.7491 28.7199C43.9268 32.8174 42.0871 36.2739 39.1603 39.2007C36.2753 42.0718 33.0139 43.8558 29 44.7199C26.9512 45.1659 23.0488 45.1659 21 44.7199C16.9861 43.8558 13.7247 42.0718 10.8397 39.2007C7.91289 36.2739 6.07317 32.8174 5.25087 28.7199C4.91638 27.0056 4.91638 23.0892 5.25087 21.3749C6.63066 14.5178 11.2578 8.91501 17.669 6.36449C20.7352 5.15195 24.4007 4.71989 27.7178 5.17983ZM22.3659 7.42373C15.0348 8.4969 9.09756 14.1415 7.49478 21.5561C7.13241 23.2147 7.13241 26.8662 7.49477 28.5248C7.99652 30.8662 8.94425 33.0962 10.2683 35.0753C11.1603 36.4133 13.6272 38.8802 14.9652 39.7721C21.1533 43.9115 28.8467 43.9115 35.0348 39.7721C36.3728 38.8802 38.8397 36.4133 39.7317 35.0753C41.0558 33.0962 42.0035 30.8662 42.5052 28.5248C42.8676 26.8662 42.8676 23.2147 42.5052 21.5561C41.7247 17.9324 39.9826 14.7965 37.3484 12.246C33.3066 8.34359 27.9129 6.60143 22.3659 7.42373Z" fill="#972355"/>
<path d="M33.0558 17.1519C37.3763 20.246 40.9861 22.8523 41.0697 22.9359C41.2509 23.1171 40.1777 24.706 39.885 24.6781C39.7735 24.6641 38.8955 24.0927 37.9199 23.3958L36.1498 22.1136L36.1498 29.1519L36.1498 36.1903L25 36.1903L13.8502 36.1903L13.8502 29.1519L13.8502 22.1136L12.0801 23.3958C11.1045 24.0927 10.2265 24.6641 10.115 24.6781C10.0035 24.692 9.65506 24.3157 9.32057 23.8558L8.72127 23.0195L16.7352 17.3053C21.1394 14.1554 24.8606 11.577 24.9861 11.5631C25.1115 11.5492 28.7491 14.0579 33.0558 17.1519ZM20.4843 17.3749L16.0801 20.5108L16.0801 27.2286L16.0801 33.9603L18.3101 33.9603L20.5401 33.9603L20.5401 29.5004L20.5401 25.0404L25 25.0404L29.4599 25.0404L29.4599 29.5004L29.4599 33.9603L31.6899 33.9603L33.9199 33.9603L33.9199 27.2286L33.9059 20.5108L29.4878 17.3471C27.0627 15.6049 25.0279 14.1972 24.9721 14.2112C24.9303 14.2251 22.9094 15.6467 20.4843 17.3749ZM22.77 30.6154L22.77 33.9603L25 33.9603L27.23 33.9603L27.23 30.6154L27.23 27.2704L25 27.2704L22.77 27.2704L22.77 30.6154Z" fill="#972355"/>
</svg>
