<svg width="68" height="80" viewBox="0 0 68 80" fill="none" xmlns="http://www.w3.org/2000/svg">
<path d="M29.4737 80C27.1579 80 25.1747 79.1747 23.5242 77.5242C21.8737 75.8737 21.0498 73.8919 21.0526 71.5789V54.7368H8.42106C6.10527 54.7368 4.12211 53.9116 2.47159 52.261C0.821059 50.6105 -0.00279987 48.6288 7.14861e-06 46.3158V16.8421C7.14861e-06 12.2105 1.64913 8.24561 4.94738 4.94737C8.24562 1.64912 12.2105 0 16.8421 0H67.3684V46.3158C67.3684 48.6316 66.5432 50.6147 64.8926 52.2653C63.2421 53.9158 61.2604 54.7396 58.9474 54.7368H46.3158V71.5789C46.3158 73.8947 45.4905 75.8779 43.84 77.5284C42.1895 79.1789 40.2077 80.0028 37.8947 80H29.4737ZM8.42106 29.4737H58.9474V8.42105H54.7368V25.2632H46.3158V8.42105H42.1053V16.8421H33.6842V8.42105H16.8421C14.5263 8.42105 12.5432 9.24631 10.8926 10.8968C9.24211 12.5474 8.41825 14.5291 8.42106 16.8421V29.4737ZM8.42106 46.3158H58.9474V37.8947H8.42106V46.3158Z" fill="white"/>
</svg>
