<svg width="110" height="80" viewBox="0 0 110 80" fill="none" xmlns="http://www.w3.org/2000/svg">
<path d="M20 0H110V60H20V0ZM65 15C68.9783 15 72.7936 16.5804 75.6066 19.3934C78.4197 22.2064 80 26.0218 80 30C80 33.9782 78.4197 37.7936 75.6066 40.6066C72.7936 43.4196 68.9783 45 65 45C61.0218 45 57.2064 43.4196 54.3934 40.6066C51.5804 37.7936 50 33.9782 50 30C50 26.0218 51.5804 22.2064 54.3934 19.3934C57.2064 16.5804 61.0218 15 65 15ZM40 10C40 12.6522 38.9464 15.1957 37.0711 17.0711C35.1957 18.9464 32.6522 20 30 20V40C32.6522 40 35.1957 41.0536 37.0711 42.9289C38.9464 44.8043 40 47.3478 40 50H90C90 47.3478 91.0536 44.8043 92.9289 42.9289C94.8043 41.0536 97.3478 40 100 40V20C97.3478 20 94.8043 18.9464 92.9289 17.0711C91.0536 15.1957 90 12.6522 90 10H40ZM0 20H10V70H90V80H0V20Z" fill="white"/>
</svg>
