<svg width="62" height="105" viewBox="0 0 62 105" fill="none" xmlns="http://www.w3.org/2000/svg">
<path d="M32.1532 0.000849736C30.7287 0.000849736 29.2815 0.0984917 27.8118 0.268797C19.9883 1.17937 13.1597 4.26303 8.34354 8.68417C3.50474 13.1076 0.610504 19.0297 1.33406 25.2969C1.96718 30.883 5.35886 35.5607 10.1751 38.7851C10.7629 37.3773 11.5091 36.083 12.2553 35.0384C8.27571 32.4044 5.8337 28.8393 5.38147 24.8201C4.86141 20.3467 6.89643 15.8325 10.9891 12.0721C15.1043 8.3095 21.2319 5.47334 28.3093 4.65133C35.3866 3.82705 42.0117 5.18041 46.8731 7.89849C51.7119 10.6188 54.7192 14.554 55.2392 19.007C55.7367 23.3895 53.8373 27.8174 49.9482 31.4961C47.5434 29.9873 44.7786 29.1559 41.9438 29.0891H41.4464C40.2932 29.1118 39.1627 29.248 37.9869 29.4978C29.5077 31.4733 24.2392 39.8297 26.1838 48.2768C27.3822 53.4995 31.0678 57.4961 35.7257 59.2899L44.7024 98.3921L55.3297 105L62 94.3956L56.6864 91.1031L60.0328 85.7895L54.7192 82.4742L58.043 77.1834L52.7294 73.8681L56.0759 68.5546L53.0233 55.2934C56.4376 51.6375 57.9978 46.4148 56.7994 41.1694C56.1889 38.5126 54.9453 36.1738 53.2268 34.2664C57.5004 29.9519 59.965 24.3886 59.2867 18.5528C58.5631 12.2969 54.4026 7.19002 48.682 3.99509C44.0467 1.39509 38.326 -0.0400236 32.1532 0.000849736ZM27.5857 30.7694C21.7294 31.0192 16.3027 34.5843 13.9285 40.3519C11.8709 45.3249 12.5718 50.7292 15.3304 54.9301L0 91.9432L4.81619 103.524L16.3931 98.7782L13.9737 92.9878L19.7622 90.6262L17.3654 84.8358L23.1539 82.4742L20.7345 76.6838L26.523 74.2996L31.6783 61.8559C27.043 59.2445 23.4931 54.7712 22.2042 49.1851C20.6441 42.3048 22.9052 35.4244 27.5857 30.7694ZM40.7002 32.4043C42.7126 32.3816 44.612 33.1991 45.9912 34.5388C44.7476 35.3336 43.3683 36.0375 41.9212 36.6733C41.5594 36.5371 41.1751 36.4917 40.7681 36.4917C40.6324 36.4917 40.5193 36.4917 40.4063 36.5144C38.8235 36.6961 37.6477 37.8995 37.4442 39.3982C37.399 39.6253 37.399 39.8524 37.399 40.0568C37.4216 40.1249 37.4216 40.2157 37.4216 40.2838C37.6477 42.1912 39.2983 43.5083 41.1977 43.2812C42.7352 43.0995 43.911 41.9415 44.1371 40.4882C45.539 39.8524 46.8505 39.1485 48.0941 38.3537C48.1393 38.5808 48.1845 38.8078 48.2071 39.0349C48.682 43.1223 45.7199 46.869 41.6499 47.3458C37.6025 47.8227 33.849 44.848 33.3968 40.7607C32.922 36.6733 35.884 32.9266 39.954 32.4498C40.2028 32.4271 40.4515 32.4043 40.7002 32.4043Z" fill="white"/>
</svg>
