<svg width="80" height="80" viewBox="0 0 80 80" fill="none" xmlns="http://www.w3.org/2000/svg">
<path d="M71.1111 8H66.6667V0H57.7778V8H22.2222V0H13.3333V8H8.88889C4 8 0 11.6 0 16V72C0 74.1217 0.936505 76.1566 2.60349 77.6569C4.27048 79.1571 6.53141 80 8.88889 80H71.1111C76.0444 80 80 76.44 80 72V16C80 13.8783 79.0635 11.8434 77.3965 10.3431C75.7295 8.84285 73.4686 8 71.1111 8ZM71.1111 72H8.88889V32H71.1111V72ZM8.88889 24V16H71.1111V24H8.88889ZM33.6 65.84L60 42.12L55.2444 37.88L33.6 57.36L24.2222 48.92L19.5111 53.16L33.6 65.84Z" fill="white"/>
</svg>
