<svg width="76" height="80" viewBox="0 0 76 80" fill="none" xmlns="http://www.w3.org/2000/svg">
<path d="M75.8003 75.525L54.7318 17.0833L58.4862 6.66666H62.7817C63.658 6.66666 64.4984 6.31547 65.1181 5.69035C65.7378 5.06523 66.0859 4.21739 66.0859 3.33333C66.0859 2.44928 65.7378 1.60143 65.1181 0.976311C64.4984 0.35119 63.658 0 62.7817 0H23.131C22.2547 0 21.4142 0.35119 20.7946 0.976311C20.1749 1.60143 19.8268 2.44928 19.8268 3.33333C19.8268 4.21739 20.1749 5.06523 20.7946 5.69035C21.4142 6.31547 22.2547 6.66666 23.131 6.66666H25.0227L0.19969 75.525C0.0509726 75.9367 -0.0158142 76.374 0.003151 76.8117C0.0221162 77.2495 0.126462 77.6793 0.310217 78.0763C0.493971 78.4734 0.753528 78.83 1.07404 79.1258C1.39455 79.4215 1.76972 79.6506 2.17809 79.8C2.53985 79.9312 2.92123 79.9988 3.30566 80C3.98423 80 4.64635 79.7893 5.20205 79.3964C5.75774 79.0035 6.18007 78.4476 6.41163 77.8041L10.4263 66.6666H29.8386L26.6417 75.525C26.493 75.9367 26.4262 76.374 26.4452 76.8117C26.4642 77.2495 26.5685 77.6793 26.7523 78.0763C26.936 78.4734 27.1956 78.83 27.5161 79.1258C27.8366 79.4215 28.2118 79.6506 28.6201 79.8C28.9793 79.9303 29.3578 79.9979 29.7394 80C30.418 80 31.0801 79.7893 31.6358 79.3964C32.1915 79.0035 32.6138 78.4476 32.8454 77.8041L40.4782 56.6666H61.9556L69.576 77.8041C69.8083 78.4496 70.2325 79.007 70.7906 79.4C71.3488 79.793 72.0137 80.0026 72.6943 80C73.0788 79.9988 73.4601 79.9312 73.8219 79.8C74.2303 79.6506 74.6054 79.4215 74.926 79.1258C75.2465 78.83 75.506 78.4734 75.6898 78.0763C75.8735 77.6793 75.9779 77.2495 75.9968 76.8117C76.0158 76.374 75.949 75.9367 75.8003 75.525ZM39.4539 40H20.0415L24.8451 26.6667H44.2574L39.4539 40ZM51.4688 6.66666L46.6488 20H27.2613L32.0524 6.66666H51.4688ZM12.8301 60L17.6377 46.6667H37.05L32.2176 60H12.8301ZM42.8655 50L51.2169 26.8375L59.5642 50H42.8655Z" fill="white"/>
</svg>
