<svg width="72" height="80" viewBox="0 0 72 80" fill="none" xmlns="http://www.w3.org/2000/svg">
<path d="M71.4286 75.7143C71.4286 76.8509 70.977 77.941 70.1733 78.7447C69.3696 79.5485 68.2795 80 67.1429 80H4.28571C3.14907 80 2.05898 79.5485 1.25526 78.7447C0.451529 77.941 0 76.8509 0 75.7143C0 74.5776 0.451529 73.4876 1.25526 72.6838C2.05898 71.8801 3.14907 71.4286 4.28571 71.4286H67.1429C68.2795 71.4286 69.3696 71.8801 70.1733 72.6838C70.977 73.4876 71.4286 74.5776 71.4286 75.7143ZM71.4286 47.1429V58.5714C71.4286 60.4658 70.676 62.2826 69.3365 63.6222C67.9969 64.9617 66.1801 65.7143 64.2857 65.7143H7.14286C5.24845 65.7143 3.43164 64.9617 2.09209 63.6222C0.752549 62.2826 0 60.4658 0 58.5714V47.1429C0 45.2485 0.752549 43.4316 2.09209 42.0921C3.43164 40.7525 5.24845 40 7.14286 40H25.5286L20.2893 15.55C19.8879 13.6759 19.9105 11.7357 20.3556 9.8714C20.8007 8.00714 21.657 6.26598 22.8618 4.77532C24.0665 3.28465 25.5894 2.08221 27.3188 1.25598C29.0482 0.42974 30.9405 0.000614361 32.8571 0H38.5714C40.4884 8.1989e-05 42.3811 0.428816 44.1109 1.25482C45.8408 2.08083 47.3641 3.2832 48.5693 4.77393C49.7744 6.26465 50.631 8.00601 51.0763 9.87053C51.5216 11.7351 51.5444 13.6756 51.1429 15.55L45.9 40H64.2857C66.1801 40 67.9969 40.7525 69.3365 42.0921C70.676 43.4316 71.4286 45.2485 71.4286 47.1429ZM34.2857 40H37.1429L42.7643 13.7536C42.898 13.1286 42.8902 12.4817 42.7415 11.8602C42.5929 11.2387 42.3071 10.6583 41.9051 10.1614C41.5031 9.66463 40.9952 9.264 40.4183 8.98888C39.8415 8.71377 39.2105 8.57114 38.5714 8.57143H32.8571C32.2184 8.57167 31.5878 8.7147 31.0114 8.99004C30.435 9.26538 29.9275 9.66608 29.5259 10.1628C29.1243 10.6596 28.8389 11.2398 28.6904 11.8611C28.542 12.4823 28.5342 13.1289 28.6679 13.7536L34.2857 40ZM62.8571 48.5714H8.57143V57.1429H62.8571V48.5714Z" fill="white"/>
</svg>
