<svg width="726" height="312" viewBox="0 0 726 312" fill="none" xmlns="http://www.w3.org/2000/svg">
<path d="M183.472 285.759C183.472 293.614 183.472 300.606 183.472 308.02C122.422 308.02 61.5091 308.02 0 308.02C0 246.067 0 184.174 0 121.986C7.16856 121.986 14.2493 121.986 21.8866 121.986C21.8866 176.397 21.8866 230.652 21.8866 285.769C76.1099 285.76 129.796 285.759 183.472 285.759Z" fill="#D4CDEF" fill-opacity="0.3"/>
<path d="M724.915 0.00980291C724.915 62.0308 724.915 123.788 724.915 185.936C717.647 185.936 710.447 185.936 702.803 185.936C702.803 131.446 702.803 77.1814 702.803 22.5051C648.901 22.5051 595.428 22.5051 541.57 22.5051C541.57 14.8761 541.57 7.6388 541.57 0C602.325 0.00979333 663.218 0.00980291 724.915 0.00980291Z" fill="#D4CDEF" fill-opacity="0.3"/>
<path d="M551.678 136.803C551.678 153.325 551.678 169.836 551.678 186.583C543.718 186.583 536.324 186.583 528.433 186.583C528.433 185.133 528.433 183.879 528.433 182.616C528.433 154.872 528.528 127.137 528.334 99.4023C528.303 94.8094 529.907 94.2218 534.137 93.5753C546.881 91.6166 554.344 96.7876 561.15 107.57C574.802 129.174 590.095 149.74 604.719 170.737C605.354 171.648 606.085 172.5 607.463 174.262C607.597 171.834 607.757 170.345 607.757 168.857C607.774 145.686 607.861 122.515 607.688 99.3434C607.658 95.1323 608.742 93.35 613.155 93.7318C617.035 94.065 620.989 94.075 624.857 93.7222C629.507 93.301 630.989 94.8584 630.972 99.6667C630.773 133.767 630.872 167.877 630.872 201.978C630.872 205.239 630.695 208.52 630.911 211.761C631.145 215.248 629.671 216.364 626.339 216.237C620.492 216.002 613.734 217.863 609.036 215.492C604.395 213.152 601.698 206.757 598.371 201.988C583.907 181.285 569.508 160.523 555.083 139.79C554.344 138.723 553.553 137.694 552.789 136.646C552.417 136.705 552.05 136.754 551.678 136.803Z" fill="#D4CDEF" fill-opacity="0.3"/>
<path d="M103.934 116.256C103.934 109.372 103.808 102.889 104.081 96.4154C104.12 95.495 106.161 93.8986 107.265 93.9081C122.872 93.9866 138.547 93.4774 154.065 94.7406C172.153 96.2096 182.769 106.326 185.24 123.053C187.672 139.536 182.31 154.823 165.404 162.011C164.965 162.197 164.594 162.52 163.588 163.157C171.44 180.462 179.302 197.815 187.623 216.158C179.146 216.158 171.88 216.354 164.652 215.973C163.353 215.904 161.761 213.642 161.019 212.055C154.817 198.775 148.557 185.505 142.805 172.02C140.91 167.574 138.596 165.546 133.79 166.33C131.769 166.663 129.649 166.389 126.954 166.389C126.954 170.884 126.954 174.909 126.954 178.944C126.954 189.873 126.827 200.812 127.012 211.741C127.071 215.209 125.86 216.403 122.5 216.266C117.949 216.08 113.379 216.002 108.837 216.286C104.95 216.521 103.768 215.042 103.798 211.232C103.944 190.02 103.876 168.808 103.895 147.595C103.895 146.489 104.032 145.382 104.13 143.747C109.032 143.747 113.701 143.747 118.369 143.747C128.135 143.737 137.892 143.835 147.659 143.698C157.21 143.57 162.836 138.458 162.885 130.202C162.933 122.093 157.201 116.6 147.805 116.423C134.953 116.168 122.1 116.305 109.247 116.276C107.665 116.256 106.073 116.256 103.934 116.256Z" fill="#D4CDEF" fill-opacity="0.3"/>
<path d="M321.101 167.211C328.963 167.211 336.19 167.211 343.964 167.211C343.964 175.986 343.964 184.555 343.964 192.978C358.662 196.307 376.281 189.971 384.006 178.885C392.425 166.8 392.6 144.608 384.387 131.867C377.062 120.507 359.775 113.828 344.032 116.668C344.032 120.879 344.032 125.218 344.032 129.566C344.032 133.787 344.032 138.007 344.032 142.63C336.356 142.63 329.011 142.63 321.071 142.63C321.071 135.354 321.071 128.224 321.071 121.094C321.071 113.27 320.944 105.435 321.237 97.61C321.286 96.2978 323.161 93.957 324.206 93.9474C341.415 93.82 358.711 92.9581 375.49 98.1386C397.972 105.082 411.313 121.673 413.169 145.245C414.331 160.052 413.511 174.605 405.912 187.944C396.849 203.838 382.082 211.467 364.962 213.945C351.689 215.874 338.084 215.591 324.616 216.011C323.484 216.051 321.276 213.916 321.257 212.77C321.023 197.806 321.101 182.812 321.101 167.211Z" fill="#D4CDEF" fill-opacity="0.3"/>
<path d="M208.562 116.394C216.023 116.394 223.134 116.394 230.908 116.394C230.908 118.362 230.908 120.096 230.908 121.829C230.898 138.135 230.898 154.451 230.888 170.757C230.888 181.382 235.097 188.316 243.672 191.773C253.214 195.632 266.145 193.888 271.76 186.886C274.388 183.615 276.195 178.699 276.263 174.498C276.673 149.554 276.595 124.591 276.351 99.6372C276.302 94.7799 277.855 93.3304 282.455 93.7027C286.654 94.0454 290.913 93.8886 295.132 93.7417C297.954 93.6437 299.273 94.4861 299.263 97.5905C299.146 124.826 299.556 152.071 298.931 179.296C298.511 197.61 284.857 211.536 265.256 215.023C249.571 217.814 234.746 215.738 221.952 205.366C213.084 198.178 208.494 188.541 208.289 177.269C207.927 157.545 208.152 137.802 208.142 118.069C208.142 117.618 208.367 117.167 208.562 116.394Z" fill="#D4CDEF" fill-opacity="0.3"/>
<path d="M458.603 165.713C458.603 175.164 458.603 183.909 458.603 193.34C469.804 193.34 481.074 193.34 492.647 193.34C492.647 201.263 492.647 208.51 492.647 216.207C482.168 216.207 471.952 216.207 461.736 216.207C454.411 216.207 447.086 216.061 439.774 216.266C436.317 216.364 435.297 215.072 435.31 211.722C435.38 173.871 435.349 136.02 435.31 98.1683C435.31 95.6025 435.622 93.7613 438.932 93.7713C456.658 93.8592 474.385 93.8107 492.539 93.8107C492.539 101.067 492.539 108.109 492.539 115.767C481.338 115.767 470.193 115.767 458.659 115.767C458.659 125.227 458.659 134.11 458.659 143.737C460.349 143.737 462.06 143.737 463.767 143.737C476.943 143.737 490.128 143.845 503.304 143.668C506.977 143.619 508.165 144.824 507.993 148.457C507.729 153.971 507.923 159.495 507.923 165.723C491.282 165.713 475.098 165.713 458.603 165.713Z" fill="#D4CDEF" fill-opacity="0.3"/>
</svg>
