<svg width="294" height="126" viewBox="0 0 294 126" fill="none" xmlns="http://www.w3.org/2000/svg">
<path d="M74.2987 115.403C74.2987 118.575 74.2987 121.399 74.2987 124.393C49.5759 124.393 24.9086 124.393 0 124.393C0 99.3734 0 74.3778 0 49.2635C2.90297 49.2635 5.77036 49.2635 8.86317 49.2635C8.86317 71.2374 8.86317 93.1481 8.86317 115.407C30.8214 115.403 52.562 115.403 74.2987 115.403Z" fill="#23155B"/>
<path d="M293.561 0.00395887C293.561 25.0509 293.561 49.9912 293.561 75.0897C290.617 75.0897 287.702 75.0897 284.606 75.0897C284.606 53.084 284.606 31.1694 284.606 9.08859C262.778 9.08859 241.124 9.08859 219.313 9.08859C219.313 6.00764 219.313 3.0849 219.313 0C243.917 0.003955 268.576 0.00395887 293.561 0.00395887Z" fill="#23155B"/>
<path d="M223.407 55.2473C223.407 61.9195 223.407 68.5875 223.407 75.3506C220.183 75.3506 217.189 75.3506 213.994 75.3506C213.994 74.7652 213.994 74.2589 213.994 73.7488C213.994 62.5442 214.032 51.3437 213.953 40.1432C213.941 38.2884 214.59 38.0511 216.304 37.79C221.464 36.999 224.487 39.0872 227.243 43.4416C232.771 52.1664 238.964 60.4719 244.886 68.9513C245.144 69.3192 245.439 69.6632 245.998 70.3751C246.052 69.3944 246.117 68.7931 246.117 68.192C246.124 58.8346 246.159 49.477 246.089 40.1194C246.076 38.4187 246.516 37.699 248.302 37.8531C249.874 37.9877 251.475 37.9917 253.041 37.8493C254.924 37.6792 255.525 38.3081 255.518 40.2499C255.437 54.0212 255.477 67.7965 255.477 81.5678C255.477 82.8848 255.406 84.2098 255.493 85.5189C255.588 86.9268 254.991 87.3778 253.642 87.3263C251.274 87.2315 248.537 87.9829 246.635 87.0257C244.755 86.0805 243.663 83.4979 242.316 81.5718C236.458 73.211 230.627 64.8264 224.786 56.4535C224.487 56.0225 224.166 55.6072 223.857 55.1841C223.706 55.2077 223.557 55.2275 223.407 55.2473Z" fill="#23155B"/>
<path d="M42.0891 46.9498C42.0891 44.1695 42.0378 41.5514 42.1484 38.937C42.1643 38.5653 42.9909 37.9206 43.4378 37.9245C49.7579 37.9562 56.1057 37.7505 62.3901 38.2607C69.7148 38.8539 74.014 42.9395 75.0145 49.6946C75.9994 56.3509 73.828 62.5246 66.982 65.4277C66.804 65.5027 66.6537 65.6333 66.2463 65.8904C69.426 72.8788 72.61 79.887 75.9796 87.2948C72.5466 87.2948 69.6042 87.3739 66.6775 87.2197C66.1514 87.1921 65.5067 86.2784 65.2061 85.6377C62.6946 80.2747 60.1596 74.9156 57.83 69.4696C57.0628 67.6741 56.1255 66.8553 54.1795 67.1717C53.3608 67.3063 52.5026 67.1955 51.411 67.1955C51.411 69.0108 51.411 70.6364 51.411 72.2658C51.411 76.6796 51.3597 81.0973 51.4348 85.511C51.4586 86.9112 50.9681 87.3937 49.6076 87.3384C47.7645 87.2631 45.9137 87.2314 44.0746 87.3462C42.5005 87.4411 42.0219 86.844 42.0338 85.3054C42.0931 76.739 42.0655 68.1724 42.0733 59.6058C42.0733 59.159 42.1286 58.712 42.1682 58.0516C44.1536 58.0516 46.0441 58.0516 47.9346 58.0516C51.8896 58.0476 55.8408 58.0871 59.7958 58.0318C63.6636 57.9804 65.9418 55.9159 65.9615 52.5818C65.9813 49.307 63.6598 47.0884 59.8551 47.0171C54.6502 46.9142 49.4454 46.9695 44.2407 46.9578C43.6 46.9498 42.9553 46.9498 42.0891 46.9498Z" fill="#23155B"/>
<path d="M130.033 67.5276C133.216 67.5276 136.143 67.5276 139.291 67.5276C139.291 71.0714 139.291 74.532 139.291 77.9333C145.243 79.278 152.378 76.7191 155.507 72.2421C158.916 67.3615 158.987 58.3996 155.661 53.2541C152.695 48.6663 145.694 45.969 139.319 47.116C139.319 48.8166 139.319 50.5687 139.319 52.3247C139.319 54.0293 139.319 55.7338 139.319 57.6006C136.21 57.6006 133.236 57.6006 130.021 57.6006C130.021 54.6621 130.021 51.7829 130.021 48.9036C130.021 45.7436 129.969 42.5796 130.088 39.4195C130.108 38.8896 130.867 37.9442 131.29 37.9404C138.259 37.8889 145.263 37.5408 152.058 39.633C161.162 42.4372 166.565 49.137 167.316 58.6567C167.787 64.6366 167.455 70.5136 164.378 75.9005C160.707 82.3193 154.727 85.4004 147.794 86.4008C142.42 87.1801 136.91 87.0655 131.456 87.2354C130.997 87.2513 130.104 86.3891 130.096 85.9264C130.001 79.8831 130.033 73.828 130.033 67.5276Z" fill="#23155B"/>
<path d="M84.459 47.0052C87.4806 47.0052 90.3599 47.0052 93.5081 47.0052C93.5081 47.8002 93.5081 48.5002 93.5081 49.2002C93.5041 55.7853 93.5041 62.3744 93.5001 68.9595C93.5001 73.2506 95.2048 76.0508 98.6773 77.4468C102.541 79.0052 107.778 78.3011 110.052 75.4733C111.116 74.1522 111.847 72.1669 111.875 70.4702C112.041 60.3969 112.009 50.3155 111.911 40.2381C111.891 38.2765 112.52 37.6912 114.382 37.8415C116.083 37.9799 117.808 37.9166 119.516 37.8572C120.659 37.8177 121.193 38.1579 121.189 39.4116C121.142 50.4105 121.308 61.4133 121.055 72.4082C120.885 79.804 115.355 85.428 107.418 86.8361C101.066 87.9632 95.0623 87.1248 89.8812 82.9364C86.2902 80.0335 84.4314 76.1416 84.3483 71.5895C84.202 63.6241 84.293 55.6509 84.289 47.6816C84.289 47.4996 84.3799 47.3176 84.459 47.0052Z" fill="#23155B"/>
<path d="M185.715 66.9227C185.715 70.7392 185.715 74.2711 185.715 78.0796C190.251 78.0796 194.815 78.0796 199.502 78.0796C199.502 81.2793 199.502 84.206 199.502 87.3145C195.258 87.3145 191.121 87.3145 186.984 87.3145C184.018 87.3145 181.052 87.2552 178.091 87.3383C176.691 87.3779 176.278 86.8559 176.283 85.5033C176.311 70.2172 176.299 54.931 176.283 39.6449C176.283 38.6087 176.409 37.8651 177.749 37.8692C184.928 37.9047 192.106 37.8851 199.458 37.8851C199.458 40.8156 199.458 43.6592 199.458 46.7522C194.922 46.7522 190.409 46.7522 185.738 46.7522C185.738 50.5726 185.738 54.1597 185.738 58.0475C186.422 58.0475 187.115 58.0475 187.807 58.0475C193.142 58.0475 198.482 58.0911 203.817 58.0199C205.305 58.0001 205.786 58.4866 205.716 59.9538C205.609 62.1805 205.688 64.4112 205.688 66.9265C198.949 66.9227 192.395 66.9227 185.715 66.9227Z" fill="#23155B"/>
</svg>
