<?xml version="1.0" encoding="utf-8"?>
<!-- Generator: Adobe Illustrator 19.0.0, SVG Export Plug-In . SVG Version: 6.00 Build 0)  -->
<svg version="1.1" id="Warstwa_1" xmlns="http://www.w3.org/2000/svg" xmlns:xlink="http://www.w3.org/1999/xlink" x="0px" y="0px"
	 viewBox="528 -205 774 538" style="enable-background:new 528 -205 774 538;" xml:space="preserve">
<style type="text/css">
	.st0{fill:#FFFFFF;}
</style>
<path class="st0" d="M1047.5-179c-1.1,0.5-45.1,44-97.7,96.7c-67,67-95.8,96.5-95.8,98c0,3.5,3.3,6.6,6.9,6.6c3,0,11-7.7,92.7-89.4
	l89.4-89.4L1146.4-53l103.3,103.5l1.8,80.5c1.1,50.1,2.1,81.3,2.8,82.5c0.5,1.1,1.5,2.3,2.1,2.7c2.1,1.5,6.3,0.8,8.2-1.3
	c1.8-2,1.9-5.8,3-89.8c0.8-68.7,0.8-88.2-0.2-90.6c-1.6-3.9-210-212.1-213.7-213.5C1050.4-180.2,1050.2-180.2,1047.5-179z"/>
<path class="st0" d="M645-22.5L575.5,47L575,69.3c-0.3,12.2-0.2,23.4,0.3,24.9c0.8,2.5,1.4,2.8,5.3,2.8c3.7,0,4.6-0.4,5.2-2.3
	c0.5-1.2,1.9-11,3.1-21.7l2.3-19.5l61.1-61.2L713.5-69L785,2.5C824.3,41.8,857.2,74,858,74s2.5,0.3,3.6,0.6c1.5,0.4,3.2-0.4,5.8-2.6
	c3.2-2.8,3.6-3.8,3.6-7.8v-4.7l-75.7-75.7C734.9-76.6,719-92,717-92S700.3-77.8,645-22.5z"/>
<path class="st0" d="M1098.7,116.7l-21.8,0.3l-0.9,2.6c-1.6,4-1.2,10,0.7,11.5c1.3,1.1,8.4,1.4,35.4,1.5c18.5,0.1,34.2,0.5,34.8,0.8
	c0.6,0.4,1.1,1.3,1.1,2.1c0,1.5-14.4,15.8-38.7,38.4c-7.9,7.4-15.2,14.8-16.4,16.7c-2,3.2-2,3.5-0.3,6.3c1,1.6,3.5,3.7,5.6,4.7
	c3.5,1.6,4.5,1.6,8.6,0.4c21.8-6.1,43.3-2.7,55,8.9c6.1,6.1,8.6,12.1,9,22c0.5,10.9-1.2,18.8-5.8,26.4
	c-7.1,11.7-16.7,16.7-34.4,17.5c-12.8,0.6-19.8-0.7-27.5-5.1c-6.6-3.7-11.7-8.7-16.8-16.4l-3.9-5.8h-5.1c-9.8,0.1-11.9,5.8-5.9,15.8
	c4,6.5,13.8,16,20.8,20c2.7,1.5,9.7,4.4,15.6,6.4c10.3,3.4,11,3.5,21.7,3c15-0.7,25-3.4,33-9.1c8.8-6.3,15-13.6,19.5-23
	c5-10.4,6.4-17.9,5.8-31.3c-0.4-8.9-0.9-11.8-3-16.5c-4.1-8.8-8.3-14.3-14.8-19.3c-8.3-6.4-16.6-9.8-28.9-12
	c-6.1-1.1-10.5-2.4-10.8-3.2c-0.7-1.8,9.3-12.3,29.9-31.2c13.9-12.8,18.1-17.2,19.3-20.5c1.9-5,0.8-9.1-2.7-10.5
	C1174,117,1128.4,116.2,1098.7,116.7z"/>
<path class="st0" d="M798,119.1c-15.4,4.2-30.7,14.9-37.2,26c-4.6,7.7-4.9,11.9-1.2,14.8c5.1,4,11.3,1.8,16.3-5.8
	c3.9-5.8,14.1-14.8,19.8-17.3c19.2-8.5,51.7,3.3,56.8,20.6c1.8,6,1.9,20.7,0.2,25.6c-1.9,5.1-9,15.2-14.2,20.1
	c-6,5.6-33,23.5-46,30.4c-16.7,9-32.5,23.8-36.6,34.3c-3.2,8.2-3.5,15.8-1,19.9c4.2,6.7,3.6,6.7,54.6,7c49.4,0.4,57.6,0.1,60.1-2.5
	c2-2,1.5-11.9-0.7-13.3c-0.8-0.4-21-0.8-44.9-0.7c-23.9,0.1-44.9-0.2-46.7-0.6c-4.1-0.9-4.8-3.1-2.3-7.1
	c4.5-7.3,14.9-15.3,35.2-27.4c11.2-6.6,23.2-13.7,26.7-15.8c12.8-7.6,28.5-26.4,32.3-38.6c4.2-13.5,2.9-31.2-3-42
	c-3.6-6.7-15-17.8-22.2-21.6C830.9,118.1,811,115.5,798,119.1z"/>
<path class="st0" d="M577.5,122.5c-4.1,4-3.3,6.6,4.9,15.7c16.8,18.8,61.3,66.3,63.8,68.1c5.2,3.9,5.1,4,43.9-37.7l20.4-21.9
	l0.3,71.3l0.2,71.4l2.2,2.3c3.4,3.7,5.6,3.8,8.9,0.7l2.9-2.8v-82.2c0-76.8-0.1-82.3-1.7-84.2c-1-1.2-3-2.4-4.5-2.7
	c-3.6-0.9-5.6,1.1-40,38.2C663.3,175.4,650.4,189,650,189c-0.3,0-14.3-14.8-31.1-32.9c-16.7-18-31.6-33.6-33.1-34.5
	C582.2,119.4,580.3,119.6,577.5,122.5z"/>
<path class="st0" d="M899.6,122.1c-2.8,2.2-3.4,5.6-1.6,9c1.7,3,65.6,72.1,69.1,74.6c6.3,4.5,5,5.6,45.4-37.9
	c16.3-17.5,19.1-20.2,19.7-18.4c0.3,1.2,0.6,33.1,0.7,71v68.9l2.8,2.9c3.4,3.5,4.7,3.5,8.4-0.1l2.9-2.9v-80.9
	c0-44.4-0.3-81.8-0.6-83.1c-1-3.4-5.9-5.7-9.3-4.2c-2.2,0.9-31.8,31.9-61.2,64.1c-2,2.1-3.9,3.9-4.2,3.9s-14.6-15.1-31.8-33.5
	C922.8,137,908,121.5,907,121C904.2,119.5,902.6,119.8,899.6,122.1z"/>
<path class="st0" d="M578.1,161.6l-3.1,2.6V227c0,61.9,0,62.8,2.1,65.4c2.6,3.3,7.7,3.6,10.5,0.5c1.8-2,1.9-4.8,2.2-64.4l0.3-62.3
	l-3.2-3.6C583.2,158.3,582.1,158.2,578.1,161.6z"/>
<path class="st0" d="M900.1,161.6l-3.1,2.6v63.4c0,62.1,0,63.4,2,65.4c2.3,2.3,6.8,2.6,9.6,0.6c1.8-1.4,1.9-3.4,2.2-65.1l0.2-63.6
	l-2.9-3C904.5,158.3,904,158.3,900.1,161.6z"/>
<path class="st0" d="M1254.3,229.7c-0.4,1-0.7,15.6-0.7,32.6c-0.1,33.5-0.3,32.7,5.6,32.7c5.7,0,5.8-0.3,5.8-33.1
	c0-18.8-0.4-30.8-1-32C1262.6,227.3,1255.3,227.2,1254.3,229.7z"/>
<path class="st0" d="M1213.3,247.9c-3.6,1.7-4.3,1.7-5.4,0.5c-1.8-2.2-6.6-1.7-8.3,0.8c-1.4,1.9-1.6,6.8-1.6,33.5V314l2.5,1.2
	c1.8,0.8,3.5,0.9,5.3,0.2c2.7-0.9,2.7-1,3-12.3c0.2-10.2,0.4-11.2,2-10.6c3.9,1.6,10.7,3.5,12.7,3.5c1.2,0,4.6-0.7,7.6-1.6
	c12.6-3.7,20.6-20.6,15.5-32.8c-2-4.9-8.5-11.6-13.1-13.7C1228.1,245.4,1218.8,245.5,1213.3,247.9z M1231.4,259.1
	c8,6.3,7.2,19.7-1.5,24.1c-13,6.7-25.6-7.5-18.1-20.4C1215.1,257.1,1226.2,255,1231.4,259.1z"/>
</svg>
