<svg width="72" height="72" viewBox="0 0 72 72" fill="none" xmlns="http://www.w3.org/2000/svg">
<path d="M37.297 16.773H34.825C28.949 16.773 24.141 21.581 24.141 27.457V44.39C24.141 50.266 28.949 55.074 34.825 55.074H37.297C43.173 55.074 47.981 50.266 47.981 44.39V27.457C47.981 21.581 43.173 16.773 37.297 16.773Z" fill="#D0CFCE"/>
<path d="M36.061 22.112C35.5114 22.1136 34.9848 22.3326 34.5962 22.7212C34.2076 23.1098 33.9886 23.6364 33.987 24.186V30.02C33.9888 30.5694 34.208 31.0958 34.5966 31.4841C34.9851 31.8725 35.5116 32.0914 36.061 32.093C36.6104 32.0914 37.1369 31.8725 37.5254 31.4841C37.914 31.0958 38.1332 30.5694 38.135 30.02V24.186C38.1334 23.6364 37.9144 23.1098 37.5258 22.7212C37.1372 22.3326 36.6106 22.1136 36.061 22.112Z" fill="#3F3F3F"/>
<path d="M35.136 18.177C38.163 19.476 41.04 21.34 41.375 26.05C41.763 31.505 39.745 41.719 39.095 46.907C38.642 50.534 36.848 52.214 34.465 54.117C33.265 55.078 39.732 54.961 42.395 53.404C44.681 52.068 46.895 49.775 46.922 50.5L47.245 24.695C47.245 24.695 46.308 17.758 38.679 17.755C38.679 17.755 31.027 17.362 35.136 18.177Z" fill="#9B9B9A"/>
<path d="M38.83 54.501H33.293C28.323 54.501 24.258 50.436 24.258 45.467V26.38C24.258 21.411 28.324 17.346 33.293 17.346H38.829C43.799 17.346 47.864 21.411 47.864 26.38V45.467C47.864 50.436 43.798 54.501 38.829 54.501H38.83Z" stroke="black" stroke-width="2" stroke-miterlimit="10" stroke-linecap="round" stroke-linejoin="round"/>
<path d="M41.331 60.016L36.115 65.232M30.857 60.016L36.073 65.232M30.857 11.892L36.073 6.67603M41.331 11.892L36.115 6.67603M36.145 32.155H35.977C35.439 32.1537 34.9234 31.9394 34.543 31.559C34.1626 31.1786 33.9483 30.663 33.947 30.125V24.08C33.947 22.964 34.861 22.051 35.977 22.051H36.145C37.261 22.051 38.175 22.964 38.175 24.081V30.127C38.175 31.243 37.261 32.157 36.145 32.157V32.155Z" stroke="black" stroke-width="2" stroke-miterlimit="10" stroke-linecap="round" stroke-linejoin="round"/>
</svg>
