<svg width="479" height="312" viewBox="0 0 479 312" fill="none" xmlns="http://www.w3.org/2000/svg">
<circle cx="328.151" cy="164" r="4" fill="#F3F3FA"/>
<circle cx="328.151" cy="180" r="4" fill="#F3F3FA"/>
<circle cx="328.151" cy="196" r="4" fill="#F3F3FA"/>
<circle cx="328.151" cy="212" r="4" fill="#F3F3FA"/>
<circle cx="328.151" cy="228" r="4" fill="#F3F3FA"/>
<circle cx="328.151" cy="244" r="4" fill="#F3F3FA"/>
<circle cx="328.151" cy="260" r="4" fill="#F3F3FA"/>
<circle cx="328.151" cy="276" r="4" fill="#F3F3FA"/>
<circle cx="328.151" cy="292" r="4" fill="#F3F3FA"/>
<circle cx="328.151" cy="308" r="4" fill="#F3F3FA"/>
<circle cx="425.151" cy="164" r="4" fill="#F3F3FA"/>
<circle cx="425.151" cy="180" r="4" fill="#F3F3FA"/>
<circle cx="425.151" cy="196" r="4" fill="#F3F3FA"/>
<circle cx="425.151" cy="212" r="4" fill="#F3F3FA"/>
<circle cx="425.151" cy="228" r="4" fill="#F3F3FA"/>
<circle cx="425.151" cy="244" r="4" fill="#F3F3FA"/>
<circle cx="425.151" cy="260" r="4" fill="#F3F3FA"/>
<circle cx="425.151" cy="276" r="4" fill="#F3F3FA"/>
<circle cx="425.151" cy="292" r="4" fill="#F3F3FA"/>
<circle cx="425.151" cy="308" r="4" fill="#F3F3FA"/>
<circle cx="377.151" cy="164" r="4" fill="#F3F3FA"/>
<circle cx="377.151" cy="180" r="4" fill="#F3F3FA"/>
<circle cx="377.151" cy="196" r="4" fill="#F3F3FA"/>
<circle cx="377.151" cy="212" r="4" fill="#F3F3FA"/>
<circle cx="377.151" cy="228" r="4" fill="#F3F3FA"/>
<circle cx="377.151" cy="244" r="4" fill="#F3F3FA"/>
<circle cx="377.151" cy="260" r="4" fill="#F3F3FA"/>
<circle cx="377.151" cy="276" r="4" fill="#F3F3FA"/>
<circle cx="377.151" cy="292" r="4" fill="#F3F3FA"/>
<circle cx="377.151" cy="308" r="4" fill="#F3F3FA"/>
<circle cx="474.151" cy="164" r="4" fill="#F3F3FA"/>
<circle cx="474.151" cy="180" r="4" fill="#F3F3FA"/>
<circle cx="474.151" cy="196" r="4" fill="#F3F3FA"/>
<circle cx="474.151" cy="212" r="4" fill="#F3F3FA"/>
<circle cx="474.151" cy="228" r="4" fill="#F3F3FA"/>
<circle cx="474.151" cy="244" r="4" fill="#F3F3FA"/>
<circle cx="474.151" cy="260" r="4" fill="#F3F3FA"/>
<circle cx="474.151" cy="276" r="4" fill="#F3F3FA"/>
<circle cx="474.151" cy="292" r="4" fill="#F3F3FA"/>
<circle cx="474.151" cy="308" r="4" fill="#F3F3FA"/>
<circle cx="344.151" cy="164" r="4" fill="#F3F3FA"/>
<circle cx="344.151" cy="180" r="4" fill="#F3F3FA"/>
<circle cx="344.151" cy="196" r="4" fill="#F3F3FA"/>
<circle cx="344.151" cy="212" r="4" fill="#F3F3FA"/>
<circle cx="344.151" cy="228" r="4" fill="#F3F3FA"/>
<circle cx="344.151" cy="244" r="4" fill="#F3F3FA"/>
<circle cx="344.151" cy="260" r="4" fill="#F3F3FA"/>
<circle cx="344.151" cy="276" r="4" fill="#F3F3FA"/>
<circle cx="344.151" cy="292" r="4" fill="#F3F3FA"/>
<circle cx="344.151" cy="308" r="4" fill="#F3F3FA"/>
<circle cx="441.151" cy="164" r="4" fill="#F3F3FA"/>
<circle cx="441.151" cy="180" r="4" fill="#F3F3FA"/>
<circle cx="441.151" cy="196" r="4" fill="#F3F3FA"/>
<circle cx="441.151" cy="212" r="4" fill="#F3F3FA"/>
<circle cx="441.151" cy="228" r="4" fill="#F3F3FA"/>
<circle cx="441.151" cy="244" r="4" fill="#F3F3FA"/>
<circle cx="441.151" cy="260" r="4" fill="#F3F3FA"/>
<circle cx="441.151" cy="276" r="4" fill="#F3F3FA"/>
<circle cx="441.151" cy="292" r="4" fill="#F3F3FA"/>
<circle cx="441.151" cy="308" r="4" fill="#F3F3FA"/>
<circle cx="393.151" cy="164" r="4" fill="#F3F3FA"/>
<circle cx="393.151" cy="180" r="4" fill="#F3F3FA"/>
<circle cx="393.151" cy="196" r="4" fill="#F3F3FA"/>
<circle cx="393.151" cy="212" r="4" fill="#F3F3FA"/>
<circle cx="393.151" cy="228" r="4" fill="#F3F3FA"/>
<circle cx="393.151" cy="244" r="4" fill="#F3F3FA"/>
<circle cx="393.151" cy="260" r="4" fill="#F3F3FA"/>
<circle cx="393.151" cy="276" r="4" fill="#F3F3FA"/>
<circle cx="393.151" cy="292" r="4" fill="#F3F3FA"/>
<circle cx="393.151" cy="308" r="4" fill="#F3F3FA"/>
<circle cx="360.151" cy="164" r="4" fill="#F3F3FA"/>
<circle cx="360.151" cy="180" r="4" fill="#F3F3FA"/>
<circle cx="360.151" cy="196" r="4" fill="#F3F3FA"/>
<circle cx="360.151" cy="212" r="4" fill="#F3F3FA"/>
<circle cx="360.151" cy="228" r="4" fill="#F3F3FA"/>
<circle cx="360.151" cy="244" r="4" fill="#F3F3FA"/>
<circle cx="360.151" cy="260" r="4" fill="#F3F3FA"/>
<circle cx="360.151" cy="276" r="4" fill="#F3F3FA"/>
<circle cx="360.151" cy="292" r="4" fill="#F3F3FA"/>
<circle cx="360.151" cy="308" r="4" fill="#F3F3FA"/>
<circle cx="457.151" cy="164" r="4" fill="#F3F3FA"/>
<circle cx="457.151" cy="180" r="4" fill="#F3F3FA"/>
<circle cx="457.151" cy="196" r="4" fill="#F3F3FA"/>
<circle cx="457.151" cy="212" r="4" fill="#F3F3FA"/>
<circle cx="457.151" cy="228" r="4" fill="#F3F3FA"/>
<circle cx="457.151" cy="244" r="4" fill="#F3F3FA"/>
<circle cx="457.151" cy="260" r="4" fill="#F3F3FA"/>
<circle cx="457.151" cy="276" r="4" fill="#F3F3FA"/>
<circle cx="457.151" cy="292" r="4" fill="#F3F3FA"/>
<circle cx="457.151" cy="308" r="4" fill="#F3F3FA"/>
<circle cx="409.151" cy="164" r="4" fill="#F3F3FA"/>
<circle cx="409.151" cy="180" r="4" fill="#F3F3FA"/>
<circle cx="409.151" cy="196" r="4" fill="#F3F3FA"/>
<circle cx="409.151" cy="212" r="4" fill="#F3F3FA"/>
<circle cx="409.151" cy="228" r="4" fill="#F3F3FA"/>
<circle cx="409.151" cy="244" r="4" fill="#F3F3FA"/>
<circle cx="409.151" cy="260" r="4" fill="#F3F3FA"/>
<circle cx="409.151" cy="276" r="4" fill="#F3F3FA"/>
<circle cx="409.151" cy="292" r="4" fill="#F3F3FA"/>
<circle cx="409.151" cy="308" r="4" fill="#F3F3FA"/>
<circle cx="166.151" cy="132" r="4" fill="#F3F3FA"/>
<circle cx="166.151" cy="148" r="4" fill="#F3F3FA"/>
<circle cx="166.151" cy="164" r="4" fill="#F3F3FA"/>
<circle cx="166.151" cy="180" r="4" fill="#F3F3FA"/>
<circle cx="166.151" cy="196" r="4" fill="#F3F3FA"/>
<circle cx="166.151" cy="212" r="4" fill="#F3F3FA"/>
<circle cx="166.151" cy="228" r="4" fill="#F3F3FA"/>
<circle cx="166.151" cy="244" r="4" fill="#F3F3FA"/>
<circle cx="166.151" cy="260" r="4" fill="#F3F3FA"/>
<circle cx="166.151" cy="276" r="4" fill="#F3F3FA"/>
<circle cx="263.151" cy="132" r="4" fill="#F3F3FA"/>
<circle cx="263.151" cy="148" r="4" fill="#F3F3FA"/>
<circle cx="263.151" cy="164" r="4" fill="#F3F3FA"/>
<circle cx="263.151" cy="180" r="4" fill="#F3F3FA"/>
<circle cx="263.151" cy="196" r="4" fill="#F3F3FA"/>
<circle cx="263.151" cy="212" r="4" fill="#F3F3FA"/>
<circle cx="263.151" cy="228" r="4" fill="#F3F3FA"/>
<circle cx="263.151" cy="244" r="4" fill="#F3F3FA"/>
<circle cx="263.151" cy="260" r="4" fill="#F3F3FA"/>
<circle cx="263.151" cy="276" r="4" fill="#F3F3FA"/>
<circle cx="215.151" cy="132" r="4" fill="#F3F3FA"/>
<circle cx="215.151" cy="148" r="4" fill="#F3F3FA"/>
<circle cx="215.151" cy="164" r="4" fill="#F3F3FA"/>
<circle cx="215.151" cy="180" r="4" fill="#F3F3FA"/>
<circle cx="215.151" cy="196" r="4" fill="#F3F3FA"/>
<circle cx="215.151" cy="212" r="4" fill="#F3F3FA"/>
<circle cx="215.151" cy="228" r="4" fill="#F3F3FA"/>
<circle cx="215.151" cy="244" r="4" fill="#F3F3FA"/>
<circle cx="215.151" cy="260" r="4" fill="#F3F3FA"/>
<circle cx="215.151" cy="276" r="4" fill="#F3F3FA"/>
<circle cx="312.151" cy="132" r="4" fill="#F3F3FA"/>
<circle cx="312.151" cy="148" r="4" fill="#F3F3FA"/>
<circle cx="312.151" cy="164" r="4" fill="#F3F3FA"/>
<circle cx="312.151" cy="180" r="4" fill="#F3F3FA"/>
<circle cx="312.151" cy="196" r="4" fill="#F3F3FA"/>
<circle cx="312.151" cy="212" r="4" fill="#F3F3FA"/>
<circle cx="312.151" cy="228" r="4" fill="#F3F3FA"/>
<circle cx="312.151" cy="244" r="4" fill="#F3F3FA"/>
<circle cx="312.151" cy="260" r="4" fill="#F3F3FA"/>
<circle cx="312.151" cy="276" r="4" fill="#F3F3FA"/>
<circle cx="182.151" cy="132" r="4" fill="#F3F3FA"/>
<circle cx="182.151" cy="148" r="4" fill="#F3F3FA"/>
<circle cx="182.151" cy="164" r="4" fill="#F3F3FA"/>
<circle cx="182.151" cy="180" r="4" fill="#F3F3FA"/>
<circle cx="182.151" cy="196" r="4" fill="#F3F3FA"/>
<circle cx="182.151" cy="212" r="4" fill="#F3F3FA"/>
<circle cx="182.151" cy="228" r="4" fill="#F3F3FA"/>
<circle cx="182.151" cy="244" r="4" fill="#F3F3FA"/>
<circle cx="182.151" cy="260" r="4" fill="#F3F3FA"/>
<circle cx="182.151" cy="276" r="4" fill="#F3F3FA"/>
<circle cx="279.151" cy="132" r="4" fill="#F3F3FA"/>
<circle cx="279.151" cy="148" r="4" fill="#F3F3FA"/>
<circle cx="279.151" cy="164" r="4" fill="#F3F3FA"/>
<circle cx="279.151" cy="180" r="4" fill="#F3F3FA"/>
<circle cx="279.151" cy="196" r="4" fill="#F3F3FA"/>
<circle cx="279.151" cy="212" r="4" fill="#F3F3FA"/>
<circle cx="279.151" cy="228" r="4" fill="#F3F3FA"/>
<circle cx="279.151" cy="244" r="4" fill="#F3F3FA"/>
<circle cx="279.151" cy="260" r="4" fill="#F3F3FA"/>
<circle cx="279.151" cy="276" r="4" fill="#F3F3FA"/>
<circle cx="231.151" cy="132" r="4" fill="#F3F3FA"/>
<circle cx="231.151" cy="148" r="4" fill="#F3F3FA"/>
<circle cx="231.151" cy="164" r="4" fill="#F3F3FA"/>
<circle cx="231.151" cy="180" r="4" fill="#F3F3FA"/>
<circle cx="231.151" cy="196" r="4" fill="#F3F3FA"/>
<circle cx="231.151" cy="212" r="4" fill="#F3F3FA"/>
<circle cx="231.151" cy="228" r="4" fill="#F3F3FA"/>
<circle cx="231.151" cy="244" r="4" fill="#F3F3FA"/>
<circle cx="231.151" cy="260" r="4" fill="#F3F3FA"/>
<circle cx="231.151" cy="276" r="4" fill="#F3F3FA"/>
<circle cx="198.151" cy="132" r="4" fill="#F3F3FA"/>
<circle cx="198.151" cy="148" r="4" fill="#F3F3FA"/>
<circle cx="198.151" cy="164" r="4" fill="#F3F3FA"/>
<circle cx="198.151" cy="180" r="4" fill="#F3F3FA"/>
<circle cx="198.151" cy="196" r="4" fill="#F3F3FA"/>
<circle cx="198.151" cy="212" r="4" fill="#F3F3FA"/>
<circle cx="198.151" cy="228" r="4" fill="#F3F3FA"/>
<circle cx="198.151" cy="244" r="4" fill="#F3F3FA"/>
<circle cx="198.151" cy="260" r="4" fill="#F3F3FA"/>
<circle cx="198.151" cy="276" r="4" fill="#F3F3FA"/>
<circle cx="295.151" cy="132" r="4" fill="#F3F3FA"/>
<circle cx="295.151" cy="148" r="4" fill="#F3F3FA"/>
<circle cx="295.151" cy="164" r="4" fill="#F3F3FA"/>
<circle cx="295.151" cy="180" r="4" fill="#F3F3FA"/>
<circle cx="295.151" cy="196" r="4" fill="#F3F3FA"/>
<circle cx="295.151" cy="212" r="4" fill="#F3F3FA"/>
<circle cx="295.151" cy="228" r="4" fill="#F3F3FA"/>
<circle cx="295.151" cy="244" r="4" fill="#F3F3FA"/>
<circle cx="295.151" cy="260" r="4" fill="#F3F3FA"/>
<circle cx="295.151" cy="276" r="4" fill="#F3F3FA"/>
<circle cx="247.151" cy="132" r="4" fill="#F3F3FA"/>
<circle cx="247.151" cy="148" r="4" fill="#F3F3FA"/>
<circle cx="247.151" cy="164" r="4" fill="#F3F3FA"/>
<circle cx="247.151" cy="180" r="4" fill="#F3F3FA"/>
<circle cx="247.151" cy="196" r="4" fill="#F3F3FA"/>
<circle cx="247.151" cy="212" r="4" fill="#F3F3FA"/>
<circle cx="247.151" cy="228" r="4" fill="#F3F3FA"/>
<circle cx="247.151" cy="244" r="4" fill="#F3F3FA"/>
<circle cx="247.151" cy="260" r="4" fill="#F3F3FA"/>
<circle cx="247.151" cy="276" r="4" fill="#F3F3FA"/>
<circle cx="21.1514" cy="148" r="4" fill="#F3F3FA"/>
<circle cx="21.1514" cy="164" r="4" fill="#F3F3FA"/>
<circle cx="21.1514" cy="180" r="4" fill="#F3F3FA"/>
<circle cx="21.1514" cy="196" r="4" fill="#F3F3FA"/>
<circle cx="21.1514" cy="212" r="4" fill="#F3F3FA"/>
<circle cx="21.1514" cy="228" r="4" fill="#F3F3FA"/>
<circle cx="21.1514" cy="244" r="4" fill="#F3F3FA"/>
<circle cx="21.1514" cy="260" r="4" fill="#F3F3FA"/>
<circle cx="21.1514" cy="276" r="4" fill="#F3F3FA"/>
<circle cx="21.1514" cy="292" r="4" fill="#F3F3FA"/>
<circle cx="118.151" cy="148" r="4" fill="#F3F3FA"/>
<circle cx="118.151" cy="164" r="4" fill="#F3F3FA"/>
<circle cx="118.151" cy="180" r="4" fill="#F3F3FA"/>
<circle cx="118.151" cy="196" r="4" fill="#F3F3FA"/>
<circle cx="118.151" cy="212" r="4" fill="#F3F3FA"/>
<circle cx="118.151" cy="228" r="4" fill="#F3F3FA"/>
<circle cx="118.151" cy="244" r="4" fill="#F3F3FA"/>
<circle cx="118.151" cy="260" r="4" fill="#F3F3FA"/>
<circle cx="118.151" cy="276" r="4" fill="#F3F3FA"/>
<circle cx="118.151" cy="292" r="4" fill="#F3F3FA"/>
<circle cx="70.1514" cy="148" r="4" fill="#F3F3FA"/>
<circle cx="70.1514" cy="164" r="4" fill="#F3F3FA"/>
<circle cx="70.1514" cy="180" r="4" fill="#F3F3FA"/>
<circle cx="70.1514" cy="196" r="4" fill="#F3F3FA"/>
<circle cx="70.1514" cy="212" r="4" fill="#F3F3FA"/>
<circle cx="70.1514" cy="228" r="4" fill="#F3F3FA"/>
<circle cx="70.1514" cy="244" r="4" fill="#F3F3FA"/>
<circle cx="70.1514" cy="260" r="4" fill="#F3F3FA"/>
<circle cx="70.1514" cy="276" r="4" fill="#F3F3FA"/>
<circle cx="70.1514" cy="292" r="4" fill="#F3F3FA"/>
<circle cx="167.151" cy="148" r="4" fill="#F3F3FA"/>
<circle cx="167.151" cy="164" r="4" fill="#F3F3FA"/>
<circle cx="167.151" cy="180" r="4" fill="#F3F3FA"/>
<circle cx="167.151" cy="196" r="4" fill="#F3F3FA"/>
<circle cx="167.151" cy="212" r="4" fill="#F3F3FA"/>
<circle cx="167.151" cy="228" r="4" fill="#F3F3FA"/>
<circle cx="167.151" cy="244" r="4" fill="#F3F3FA"/>
<circle cx="167.151" cy="260" r="4" fill="#F3F3FA"/>
<circle cx="167.151" cy="276" r="4" fill="#F3F3FA"/>
<circle cx="167.151" cy="292" r="4" fill="#F3F3FA"/>
<circle cx="37.1514" cy="148" r="4" fill="#F3F3FA"/>
<circle cx="37.1514" cy="164" r="4" fill="#F3F3FA"/>
<circle cx="37.1514" cy="180" r="4" fill="#F3F3FA"/>
<circle cx="37.1514" cy="196" r="4" fill="#F3F3FA"/>
<circle cx="37.1514" cy="212" r="4" fill="#F3F3FA"/>
<circle cx="37.1514" cy="228" r="4" fill="#F3F3FA"/>
<circle cx="37.1514" cy="244" r="4" fill="#F3F3FA"/>
<circle cx="37.1514" cy="260" r="4" fill="#F3F3FA"/>
<circle cx="37.1514" cy="276" r="4" fill="#F3F3FA"/>
<circle cx="37.1514" cy="292" r="4" fill="#F3F3FA"/>
<circle cx="134.151" cy="148" r="4" fill="#F3F3FA"/>
<circle cx="134.151" cy="164" r="4" fill="#F3F3FA"/>
<circle cx="134.151" cy="180" r="4" fill="#F3F3FA"/>
<circle cx="134.151" cy="196" r="4" fill="#F3F3FA"/>
<circle cx="134.151" cy="212" r="4" fill="#F3F3FA"/>
<circle cx="134.151" cy="228" r="4" fill="#F3F3FA"/>
<circle cx="134.151" cy="244" r="4" fill="#F3F3FA"/>
<circle cx="134.151" cy="260" r="4" fill="#F3F3FA"/>
<circle cx="134.151" cy="276" r="4" fill="#F3F3FA"/>
<circle cx="134.151" cy="292" r="4" fill="#F3F3FA"/>
<circle cx="86.1514" cy="148" r="4" fill="#F3F3FA"/>
<circle cx="86.1514" cy="164" r="4" fill="#F3F3FA"/>
<circle cx="86.1514" cy="180" r="4" fill="#F3F3FA"/>
<circle cx="86.1514" cy="196" r="4" fill="#F3F3FA"/>
<circle cx="86.1514" cy="212" r="4" fill="#F3F3FA"/>
<circle cx="86.1514" cy="228" r="4" fill="#F3F3FA"/>
<circle cx="86.1514" cy="244" r="4" fill="#F3F3FA"/>
<circle cx="86.1514" cy="260" r="4" fill="#F3F3FA"/>
<circle cx="86.1514" cy="276" r="4" fill="#F3F3FA"/>
<circle cx="86.1514" cy="292" r="4" fill="#F3F3FA"/>
<circle cx="53.1514" cy="148" r="4" fill="#F3F3FA"/>
<circle cx="53.1514" cy="164" r="4" fill="#F3F3FA"/>
<circle cx="53.1514" cy="180" r="4" fill="#F3F3FA"/>
<circle cx="53.1514" cy="196" r="4" fill="#F3F3FA"/>
<circle cx="53.1514" cy="212" r="4" fill="#F3F3FA"/>
<circle cx="53.1514" cy="228" r="4" fill="#F3F3FA"/>
<circle cx="53.1514" cy="244" r="4" fill="#F3F3FA"/>
<circle cx="53.1514" cy="260" r="4" fill="#F3F3FA"/>
<circle cx="53.1514" cy="276" r="4" fill="#F3F3FA"/>
<circle cx="53.1514" cy="292" r="4" fill="#F3F3FA"/>
<circle cx="150.151" cy="148" r="4" fill="#F3F3FA"/>
<circle cx="150.151" cy="164" r="4" fill="#F3F3FA"/>
<circle cx="150.151" cy="180" r="4" fill="#F3F3FA"/>
<circle cx="150.151" cy="196" r="4" fill="#F3F3FA"/>
<circle cx="150.151" cy="212" r="4" fill="#F3F3FA"/>
<circle cx="150.151" cy="228" r="4" fill="#F3F3FA"/>
<circle cx="150.151" cy="244" r="4" fill="#F3F3FA"/>
<circle cx="150.151" cy="260" r="4" fill="#F3F3FA"/>
<circle cx="150.151" cy="276" r="4" fill="#F3F3FA"/>
<circle cx="150.151" cy="292" r="4" fill="#F3F3FA"/>
<circle cx="102.151" cy="148" r="4" fill="#F3F3FA"/>
<circle cx="102.151" cy="164" r="4" fill="#F3F3FA"/>
<circle cx="102.151" cy="180" r="4" fill="#F3F3FA"/>
<circle cx="102.151" cy="196" r="4" fill="#F3F3FA"/>
<circle cx="102.151" cy="212" r="4" fill="#F3F3FA"/>
<circle cx="102.151" cy="228" r="4" fill="#F3F3FA"/>
<circle cx="102.151" cy="244" r="4" fill="#F3F3FA"/>
<circle cx="102.151" cy="260" r="4" fill="#F3F3FA"/>
<circle cx="102.151" cy="276" r="4" fill="#F3F3FA"/>
<circle cx="102.151" cy="292" r="4" fill="#F3F3FA"/>
<circle cx="5.15137" cy="148" r="4" fill="#F3F3FA"/>
<circle cx="5.15137" cy="164" r="4" fill="#F3F3FA"/>
<circle cx="5.15137" cy="180" r="4" fill="#F3F3FA"/>
<circle cx="5.15137" cy="196" r="4" fill="#F3F3FA"/>
<circle cx="5.15137" cy="212" r="4" fill="#F3F3FA"/>
<circle cx="5.15137" cy="228" r="4" fill="#F3F3FA"/>
<circle cx="5.15137" cy="244" r="4" fill="#F3F3FA"/>
<circle cx="5.15137" cy="260" r="4" fill="#F3F3FA"/>
<circle cx="5.15137" cy="276" r="4" fill="#F3F3FA"/>
<circle cx="5.15137" cy="292" r="4" fill="#F3F3FA"/>
<circle cx="102.151" cy="148" r="4" fill="#F3F3FA"/>
<circle cx="102.151" cy="164" r="4" fill="#F3F3FA"/>
<circle cx="102.151" cy="180" r="4" fill="#F3F3FA"/>
<circle cx="102.151" cy="196" r="4" fill="#F3F3FA"/>
<circle cx="102.151" cy="212" r="4" fill="#F3F3FA"/>
<circle cx="102.151" cy="228" r="4" fill="#F3F3FA"/>
<circle cx="102.151" cy="244" r="4" fill="#F3F3FA"/>
<circle cx="102.151" cy="260" r="4" fill="#F3F3FA"/>
<circle cx="102.151" cy="276" r="4" fill="#F3F3FA"/>
<circle cx="102.151" cy="292" r="4" fill="#F3F3FA"/>
<circle cx="54.1514" cy="148" r="4" fill="#F3F3FA"/>
<circle cx="54.1514" cy="164" r="4" fill="#F3F3FA"/>
<circle cx="54.1514" cy="180" r="4" fill="#F3F3FA"/>
<circle cx="54.1514" cy="196" r="4" fill="#F3F3FA"/>
<circle cx="54.1514" cy="212" r="4" fill="#F3F3FA"/>
<circle cx="54.1514" cy="228" r="4" fill="#F3F3FA"/>
<circle cx="54.1514" cy="244" r="4" fill="#F3F3FA"/>
<circle cx="54.1514" cy="260" r="4" fill="#F3F3FA"/>
<circle cx="54.1514" cy="276" r="4" fill="#F3F3FA"/>
<circle cx="54.1514" cy="292" r="4" fill="#F3F3FA"/>
<circle cx="151.151" cy="148" r="4" fill="#F3F3FA"/>
<circle cx="151.151" cy="164" r="4" fill="#F3F3FA"/>
<circle cx="151.151" cy="180" r="4" fill="#F3F3FA"/>
<circle cx="151.151" cy="196" r="4" fill="#F3F3FA"/>
<circle cx="151.151" cy="212" r="4" fill="#F3F3FA"/>
<circle cx="151.151" cy="228" r="4" fill="#F3F3FA"/>
<circle cx="151.151" cy="244" r="4" fill="#F3F3FA"/>
<circle cx="151.151" cy="260" r="4" fill="#F3F3FA"/>
<circle cx="151.151" cy="276" r="4" fill="#F3F3FA"/>
<circle cx="151.151" cy="292" r="4" fill="#F3F3FA"/>
<circle cx="21.1514" cy="148" r="4" fill="#F3F3FA"/>
<circle cx="21.1514" cy="164" r="4" fill="#F3F3FA"/>
<circle cx="21.1514" cy="180" r="4" fill="#F3F3FA"/>
<circle cx="21.1514" cy="196" r="4" fill="#F3F3FA"/>
<circle cx="21.1514" cy="212" r="4" fill="#F3F3FA"/>
<circle cx="21.1514" cy="228" r="4" fill="#F3F3FA"/>
<circle cx="21.1514" cy="244" r="4" fill="#F3F3FA"/>
<circle cx="21.1514" cy="260" r="4" fill="#F3F3FA"/>
<circle cx="21.1514" cy="276" r="4" fill="#F3F3FA"/>
<circle cx="21.1514" cy="292" r="4" fill="#F3F3FA"/>
<circle cx="118.151" cy="148" r="4" fill="#F3F3FA"/>
<circle cx="118.151" cy="164" r="4" fill="#F3F3FA"/>
<circle cx="118.151" cy="180" r="4" fill="#F3F3FA"/>
<circle cx="118.151" cy="196" r="4" fill="#F3F3FA"/>
<circle cx="118.151" cy="212" r="4" fill="#F3F3FA"/>
<circle cx="118.151" cy="228" r="4" fill="#F3F3FA"/>
<circle cx="118.151" cy="244" r="4" fill="#F3F3FA"/>
<circle cx="118.151" cy="260" r="4" fill="#F3F3FA"/>
<circle cx="118.151" cy="276" r="4" fill="#F3F3FA"/>
<circle cx="118.151" cy="292" r="4" fill="#F3F3FA"/>
<circle cx="70.1514" cy="148" r="4" fill="#F3F3FA"/>
<circle cx="70.1514" cy="164" r="4" fill="#F3F3FA"/>
<circle cx="70.1514" cy="180" r="4" fill="#F3F3FA"/>
<circle cx="70.1514" cy="196" r="4" fill="#F3F3FA"/>
<circle cx="70.1514" cy="212" r="4" fill="#F3F3FA"/>
<circle cx="70.1514" cy="228" r="4" fill="#F3F3FA"/>
<circle cx="70.1514" cy="244" r="4" fill="#F3F3FA"/>
<circle cx="70.1514" cy="260" r="4" fill="#F3F3FA"/>
<circle cx="70.1514" cy="276" r="4" fill="#F3F3FA"/>
<circle cx="70.1514" cy="292" r="4" fill="#F3F3FA"/>
<circle cx="37.1514" cy="148" r="4" fill="#F3F3FA"/>
<circle cx="37.1514" cy="164" r="4" fill="#F3F3FA"/>
<circle cx="37.1514" cy="180" r="4" fill="#F3F3FA"/>
<circle cx="37.1514" cy="196" r="4" fill="#F3F3FA"/>
<circle cx="37.1514" cy="212" r="4" fill="#F3F3FA"/>
<circle cx="37.1514" cy="228" r="4" fill="#F3F3FA"/>
<circle cx="37.1514" cy="244" r="4" fill="#F3F3FA"/>
<circle cx="37.1514" cy="260" r="4" fill="#F3F3FA"/>
<circle cx="37.1514" cy="276" r="4" fill="#F3F3FA"/>
<circle cx="37.1514" cy="292" r="4" fill="#F3F3FA"/>
<circle cx="134.151" cy="148" r="4" fill="#F3F3FA"/>
<circle cx="134.151" cy="164" r="4" fill="#F3F3FA"/>
<circle cx="134.151" cy="180" r="4" fill="#F3F3FA"/>
<circle cx="134.151" cy="196" r="4" fill="#F3F3FA"/>
<circle cx="134.151" cy="212" r="4" fill="#F3F3FA"/>
<circle cx="134.151" cy="228" r="4" fill="#F3F3FA"/>
<circle cx="134.151" cy="244" r="4" fill="#F3F3FA"/>
<circle cx="134.151" cy="260" r="4" fill="#F3F3FA"/>
<circle cx="134.151" cy="276" r="4" fill="#F3F3FA"/>
<circle cx="134.151" cy="292" r="4" fill="#F3F3FA"/>
<circle cx="86.1514" cy="148" r="4" fill="#F3F3FA"/>
<circle cx="86.1514" cy="164" r="4" fill="#F3F3FA"/>
<circle cx="86.1514" cy="180" r="4" fill="#F3F3FA"/>
<circle cx="86.1514" cy="196" r="4" fill="#F3F3FA"/>
<circle cx="86.1514" cy="212" r="4" fill="#F3F3FA"/>
<circle cx="86.1514" cy="228" r="4" fill="#F3F3FA"/>
<circle cx="86.1514" cy="244" r="4" fill="#F3F3FA"/>
<circle cx="86.1514" cy="260" r="4" fill="#F3F3FA"/>
<circle cx="86.1514" cy="276" r="4" fill="#F3F3FA"/>
<circle cx="86.1514" cy="292" r="4" fill="#F3F3FA"/>
<circle cx="5.15137" cy="4" r="4" fill="#F3F3FA"/>
<circle cx="5.15137" cy="20" r="4" fill="#F3F3FA"/>
<circle cx="5.15137" cy="36" r="4" fill="#F3F3FA"/>
<circle cx="5.15137" cy="52" r="4" fill="#F3F3FA"/>
<circle cx="5.15137" cy="68" r="4" fill="#F3F3FA"/>
<circle cx="5.15137" cy="84" r="4" fill="#F3F3FA"/>
<circle cx="5.15137" cy="100" r="4" fill="#F3F3FA"/>
<circle cx="5.15137" cy="116" r="4" fill="#F3F3FA"/>
<circle cx="5.15137" cy="132" r="4" fill="#F3F3FA"/>
<circle cx="5.15137" cy="148" r="4" fill="#F3F3FA"/>
<circle cx="102.151" cy="4" r="4" fill="#F3F3FA"/>
<circle cx="102.151" cy="20" r="4" fill="#F3F3FA"/>
<circle cx="102.151" cy="36" r="4" fill="#F3F3FA"/>
<circle cx="102.151" cy="52" r="4" fill="#F3F3FA"/>
<circle cx="102.151" cy="68" r="4" fill="#F3F3FA"/>
<circle cx="102.151" cy="84" r="4" fill="#F3F3FA"/>
<circle cx="102.151" cy="100" r="4" fill="#F3F3FA"/>
<circle cx="102.151" cy="116" r="4" fill="#F3F3FA"/>
<circle cx="102.151" cy="132" r="4" fill="#F3F3FA"/>
<circle cx="102.151" cy="148" r="4" fill="#F3F3FA"/>
<circle cx="54.1514" cy="4" r="4" fill="#F3F3FA"/>
<circle cx="54.1514" cy="20" r="4" fill="#F3F3FA"/>
<circle cx="54.1514" cy="36" r="4" fill="#F3F3FA"/>
<circle cx="54.1514" cy="52" r="4" fill="#F3F3FA"/>
<circle cx="54.1514" cy="68" r="4" fill="#F3F3FA"/>
<circle cx="54.1514" cy="84" r="4" fill="#F3F3FA"/>
<circle cx="54.1514" cy="100" r="4" fill="#F3F3FA"/>
<circle cx="54.1514" cy="116" r="4" fill="#F3F3FA"/>
<circle cx="54.1514" cy="132" r="4" fill="#F3F3FA"/>
<circle cx="54.1514" cy="148" r="4" fill="#F3F3FA"/>
<circle cx="151.151" cy="4" r="4" fill="#F3F3FA"/>
<circle cx="151.151" cy="20" r="4" fill="#F3F3FA"/>
<circle cx="151.151" cy="36" r="4" fill="#F3F3FA"/>
<circle cx="151.151" cy="52" r="4" fill="#F3F3FA"/>
<circle cx="151.151" cy="68" r="4" fill="#F3F3FA"/>
<circle cx="151.151" cy="84" r="4" fill="#F3F3FA"/>
<circle cx="151.151" cy="100" r="4" fill="#F3F3FA"/>
<circle cx="151.151" cy="116" r="4" fill="#F3F3FA"/>
<circle cx="151.151" cy="132" r="4" fill="#F3F3FA"/>
<circle cx="151.151" cy="148" r="4" fill="#F3F3FA"/>
<circle cx="21.1514" cy="4" r="4" fill="#F3F3FA"/>
<circle cx="21.1514" cy="20" r="4" fill="#F3F3FA"/>
<circle cx="21.1514" cy="36" r="4" fill="#F3F3FA"/>
<circle cx="21.1514" cy="52" r="4" fill="#F3F3FA"/>
<circle cx="21.1514" cy="68" r="4" fill="#F3F3FA"/>
<circle cx="21.1514" cy="84" r="4" fill="#F3F3FA"/>
<circle cx="21.1514" cy="100" r="4" fill="#F3F3FA"/>
<circle cx="21.1514" cy="116" r="4" fill="#F3F3FA"/>
<circle cx="21.1514" cy="132" r="4" fill="#F3F3FA"/>
<circle cx="21.1514" cy="148" r="4" fill="#F3F3FA"/>
<circle cx="118.151" cy="4" r="4" fill="#F3F3FA"/>
<circle cx="118.151" cy="20" r="4" fill="#F3F3FA"/>
<circle cx="118.151" cy="36" r="4" fill="#F3F3FA"/>
<circle cx="118.151" cy="52" r="4" fill="#F3F3FA"/>
<circle cx="118.151" cy="68" r="4" fill="#F3F3FA"/>
<circle cx="118.151" cy="84" r="4" fill="#F3F3FA"/>
<circle cx="118.151" cy="100" r="4" fill="#F3F3FA"/>
<circle cx="118.151" cy="116" r="4" fill="#F3F3FA"/>
<circle cx="118.151" cy="132" r="4" fill="#F3F3FA"/>
<circle cx="118.151" cy="148" r="4" fill="#F3F3FA"/>
<circle cx="70.1514" cy="4" r="4" fill="#F3F3FA"/>
<circle cx="70.1514" cy="20" r="4" fill="#F3F3FA"/>
<circle cx="70.1514" cy="36" r="4" fill="#F3F3FA"/>
<circle cx="70.1514" cy="52" r="4" fill="#F3F3FA"/>
<circle cx="70.1514" cy="68" r="4" fill="#F3F3FA"/>
<circle cx="70.1514" cy="84" r="4" fill="#F3F3FA"/>
<circle cx="70.1514" cy="100" r="4" fill="#F3F3FA"/>
<circle cx="70.1514" cy="116" r="4" fill="#F3F3FA"/>
<circle cx="70.1514" cy="132" r="4" fill="#F3F3FA"/>
<circle cx="70.1514" cy="148" r="4" fill="#F3F3FA"/>
<circle cx="37.1514" cy="4" r="4" fill="#F3F3FA"/>
<circle cx="37.1514" cy="20" r="4" fill="#F3F3FA"/>
<circle cx="37.1514" cy="36" r="4" fill="#F3F3FA"/>
<circle cx="37.1514" cy="52" r="4" fill="#F3F3FA"/>
<circle cx="37.1514" cy="68" r="4" fill="#F3F3FA"/>
<circle cx="37.1514" cy="84" r="4" fill="#F3F3FA"/>
<circle cx="37.1514" cy="100" r="4" fill="#F3F3FA"/>
<circle cx="37.1514" cy="116" r="4" fill="#F3F3FA"/>
<circle cx="37.1514" cy="132" r="4" fill="#F3F3FA"/>
<circle cx="37.1514" cy="148" r="4" fill="#F3F3FA"/>
<circle cx="134.151" cy="4" r="4" fill="#F3F3FA"/>
<circle cx="134.151" cy="20" r="4" fill="#F3F3FA"/>
<circle cx="134.151" cy="36" r="4" fill="#F3F3FA"/>
<circle cx="134.151" cy="52" r="4" fill="#F3F3FA"/>
<circle cx="134.151" cy="68" r="4" fill="#F3F3FA"/>
<circle cx="134.151" cy="84" r="4" fill="#F3F3FA"/>
<circle cx="134.151" cy="100" r="4" fill="#F3F3FA"/>
<circle cx="134.151" cy="116" r="4" fill="#F3F3FA"/>
<circle cx="134.151" cy="132" r="4" fill="#F3F3FA"/>
<circle cx="134.151" cy="148" r="4" fill="#F3F3FA"/>
<circle cx="86.1514" cy="4" r="4" fill="#F3F3FA"/>
<circle cx="86.1514" cy="20" r="4" fill="#F3F3FA"/>
<circle cx="86.1514" cy="36" r="4" fill="#F3F3FA"/>
<circle cx="86.1514" cy="52" r="4" fill="#F3F3FA"/>
<circle cx="86.1514" cy="68" r="4" fill="#F3F3FA"/>
<circle cx="86.1514" cy="84" r="4" fill="#F3F3FA"/>
<circle cx="86.1514" cy="100" r="4" fill="#F3F3FA"/>
<circle cx="86.1514" cy="116" r="4" fill="#F3F3FA"/>
<circle cx="86.1514" cy="132" r="4" fill="#F3F3FA"/>
<circle cx="86.1514" cy="148" r="4" fill="#F3F3FA"/>
<circle cx="328.151" cy="4" r="4" fill="#F3F3FA"/>
<circle cx="328.151" cy="20" r="4" fill="#F3F3FA"/>
<circle cx="328.151" cy="36" r="4" fill="#F3F3FA"/>
<circle cx="328.151" cy="52" r="4" fill="#F3F3FA"/>
<circle cx="328.151" cy="68" r="4" fill="#F3F3FA"/>
<circle cx="328.151" cy="84" r="4" fill="#F3F3FA"/>
<circle cx="328.151" cy="100" r="4" fill="#F3F3FA"/>
<circle cx="328.151" cy="116" r="4" fill="#F3F3FA"/>
<circle cx="328.151" cy="132" r="4" fill="#F3F3FA"/>
<circle cx="328.151" cy="148" r="4" fill="#F3F3FA"/>
<circle cx="425.151" cy="4" r="4" fill="#F3F3FA"/>
<circle cx="425.151" cy="20" r="4" fill="#F3F3FA"/>
<circle cx="425.151" cy="36" r="4" fill="#F3F3FA"/>
<circle cx="425.151" cy="52" r="4" fill="#F3F3FA"/>
<circle cx="425.151" cy="68" r="4" fill="#F3F3FA"/>
<circle cx="425.151" cy="84" r="4" fill="#F3F3FA"/>
<circle cx="425.151" cy="100" r="4" fill="#F3F3FA"/>
<circle cx="425.151" cy="116" r="4" fill="#F3F3FA"/>
<circle cx="425.151" cy="132" r="4" fill="#F3F3FA"/>
<circle cx="425.151" cy="148" r="4" fill="#F3F3FA"/>
<circle cx="377.151" cy="4" r="4" fill="#F3F3FA"/>
<circle cx="377.151" cy="20" r="4" fill="#F3F3FA"/>
<circle cx="377.151" cy="36" r="4" fill="#F3F3FA"/>
<circle cx="377.151" cy="52" r="4" fill="#F3F3FA"/>
<circle cx="377.151" cy="68" r="4" fill="#F3F3FA"/>
<circle cx="377.151" cy="84" r="4" fill="#F3F3FA"/>
<circle cx="377.151" cy="100" r="4" fill="#F3F3FA"/>
<circle cx="377.151" cy="116" r="4" fill="#F3F3FA"/>
<circle cx="377.151" cy="132" r="4" fill="#F3F3FA"/>
<circle cx="377.151" cy="148" r="4" fill="#F3F3FA"/>
<circle cx="474.151" cy="4" r="4" fill="#F3F3FA"/>
<circle cx="474.151" cy="20" r="4" fill="#F3F3FA"/>
<circle cx="474.151" cy="36" r="4" fill="#F3F3FA"/>
<circle cx="474.151" cy="52" r="4" fill="#F3F3FA"/>
<circle cx="474.151" cy="68" r="4" fill="#F3F3FA"/>
<circle cx="474.151" cy="84" r="4" fill="#F3F3FA"/>
<circle cx="474.151" cy="100" r="4" fill="#F3F3FA"/>
<circle cx="474.151" cy="116" r="4" fill="#F3F3FA"/>
<circle cx="474.151" cy="132" r="4" fill="#F3F3FA"/>
<circle cx="474.151" cy="148" r="4" fill="#F3F3FA"/>
<circle cx="344.151" cy="4" r="4" fill="#F3F3FA"/>
<circle cx="344.151" cy="20" r="4" fill="#F3F3FA"/>
<circle cx="344.151" cy="36" r="4" fill="#F3F3FA"/>
<circle cx="344.151" cy="52" r="4" fill="#F3F3FA"/>
<circle cx="344.151" cy="68" r="4" fill="#F3F3FA"/>
<circle cx="344.151" cy="84" r="4" fill="#F3F3FA"/>
<circle cx="344.151" cy="100" r="4" fill="#F3F3FA"/>
<circle cx="344.151" cy="116" r="4" fill="#F3F3FA"/>
<circle cx="344.151" cy="132" r="4" fill="#F3F3FA"/>
<circle cx="344.151" cy="148" r="4" fill="#F3F3FA"/>
<circle cx="441.151" cy="4" r="4" fill="#F3F3FA"/>
<circle cx="441.151" cy="20" r="4" fill="#F3F3FA"/>
<circle cx="441.151" cy="36" r="4" fill="#F3F3FA"/>
<circle cx="441.151" cy="52" r="4" fill="#F3F3FA"/>
<circle cx="441.151" cy="68" r="4" fill="#F3F3FA"/>
<circle cx="441.151" cy="84" r="4" fill="#F3F3FA"/>
<circle cx="441.151" cy="100" r="4" fill="#F3F3FA"/>
<circle cx="441.151" cy="116" r="4" fill="#F3F3FA"/>
<circle cx="441.151" cy="132" r="4" fill="#F3F3FA"/>
<circle cx="441.151" cy="148" r="4" fill="#F3F3FA"/>
<circle cx="393.151" cy="4" r="4" fill="#F3F3FA"/>
<circle cx="393.151" cy="20" r="4" fill="#F3F3FA"/>
<circle cx="393.151" cy="36" r="4" fill="#F3F3FA"/>
<circle cx="393.151" cy="52" r="4" fill="#F3F3FA"/>
<circle cx="393.151" cy="68" r="4" fill="#F3F3FA"/>
<circle cx="393.151" cy="84" r="4" fill="#F3F3FA"/>
<circle cx="393.151" cy="100" r="4" fill="#F3F3FA"/>
<circle cx="393.151" cy="116" r="4" fill="#F3F3FA"/>
<circle cx="393.151" cy="132" r="4" fill="#F3F3FA"/>
<circle cx="393.151" cy="148" r="4" fill="#F3F3FA"/>
<circle cx="360.151" cy="4" r="4" fill="#F3F3FA"/>
<circle cx="360.151" cy="20" r="4" fill="#F3F3FA"/>
<circle cx="360.151" cy="36" r="4" fill="#F3F3FA"/>
<circle cx="360.151" cy="52" r="4" fill="#F3F3FA"/>
<circle cx="360.151" cy="68" r="4" fill="#F3F3FA"/>
<circle cx="360.151" cy="84" r="4" fill="#F3F3FA"/>
<circle cx="360.151" cy="100" r="4" fill="#F3F3FA"/>
<circle cx="360.151" cy="116" r="4" fill="#F3F3FA"/>
<circle cx="360.151" cy="132" r="4" fill="#F3F3FA"/>
<circle cx="360.151" cy="148" r="4" fill="#F3F3FA"/>
<circle cx="457.151" cy="4" r="4" fill="#F3F3FA"/>
<circle cx="457.151" cy="20" r="4" fill="#F3F3FA"/>
<circle cx="457.151" cy="36" r="4" fill="#F3F3FA"/>
<circle cx="457.151" cy="52" r="4" fill="#F3F3FA"/>
<circle cx="457.151" cy="68" r="4" fill="#F3F3FA"/>
<circle cx="457.151" cy="84" r="4" fill="#F3F3FA"/>
<circle cx="457.151" cy="100" r="4" fill="#F3F3FA"/>
<circle cx="457.151" cy="116" r="4" fill="#F3F3FA"/>
<circle cx="457.151" cy="132" r="4" fill="#F3F3FA"/>
<circle cx="457.151" cy="148" r="4" fill="#F3F3FA"/>
<circle cx="409.151" cy="4" r="4" fill="#F3F3FA"/>
<circle cx="409.151" cy="20" r="4" fill="#F3F3FA"/>
<circle cx="409.151" cy="36" r="4" fill="#F3F3FA"/>
<circle cx="409.151" cy="52" r="4" fill="#F3F3FA"/>
<circle cx="409.151" cy="68" r="4" fill="#F3F3FA"/>
<circle cx="409.151" cy="84" r="4" fill="#F3F3FA"/>
<circle cx="409.151" cy="100" r="4" fill="#F3F3FA"/>
<circle cx="409.151" cy="116" r="4" fill="#F3F3FA"/>
<circle cx="409.151" cy="132" r="4" fill="#F3F3FA"/>
<circle cx="409.151" cy="148" r="4" fill="#F3F3FA"/>
<circle cx="166.151" cy="4" r="4" fill="#F3F3FA"/>
<circle cx="166.151" cy="20" r="4" fill="#F3F3FA"/>
<circle cx="166.151" cy="36" r="4" fill="#F3F3FA"/>
<circle cx="166.151" cy="52" r="4" fill="#F3F3FA"/>
<circle cx="166.151" cy="68" r="4" fill="#F3F3FA"/>
<circle cx="166.151" cy="84" r="4" fill="#F3F3FA"/>
<circle cx="166.151" cy="100" r="4" fill="#F3F3FA"/>
<circle cx="166.151" cy="116" r="4" fill="#F3F3FA"/>
<circle cx="166.151" cy="132" r="4" fill="#F3F3FA"/>
<circle cx="166.151" cy="148" r="4" fill="#F3F3FA"/>
<circle cx="263.151" cy="4" r="4" fill="#F3F3FA"/>
<circle cx="263.151" cy="20" r="4" fill="#F3F3FA"/>
<circle cx="263.151" cy="36" r="4" fill="#F3F3FA"/>
<circle cx="263.151" cy="52" r="4" fill="#F3F3FA"/>
<circle cx="263.151" cy="68" r="4" fill="#F3F3FA"/>
<circle cx="263.151" cy="84" r="4" fill="#F3F3FA"/>
<circle cx="263.151" cy="100" r="4" fill="#F3F3FA"/>
<circle cx="263.151" cy="116" r="4" fill="#F3F3FA"/>
<circle cx="263.151" cy="132" r="4" fill="#F3F3FA"/>
<circle cx="263.151" cy="148" r="4" fill="#F3F3FA"/>
<circle cx="215.151" cy="4" r="4" fill="#F3F3FA"/>
<circle cx="215.151" cy="20" r="4" fill="#F3F3FA"/>
<circle cx="215.151" cy="36" r="4" fill="#F3F3FA"/>
<circle cx="215.151" cy="52" r="4" fill="#F3F3FA"/>
<circle cx="215.151" cy="68" r="4" fill="#F3F3FA"/>
<circle cx="215.151" cy="84" r="4" fill="#F3F3FA"/>
<circle cx="215.151" cy="100" r="4" fill="#F3F3FA"/>
<circle cx="215.151" cy="116" r="4" fill="#F3F3FA"/>
<circle cx="215.151" cy="132" r="4" fill="#F3F3FA"/>
<circle cx="215.151" cy="148" r="4" fill="#F3F3FA"/>
<circle cx="312.151" cy="4" r="4" fill="#F3F3FA"/>
<circle cx="312.151" cy="20" r="4" fill="#F3F3FA"/>
<circle cx="312.151" cy="36" r="4" fill="#F3F3FA"/>
<circle cx="312.151" cy="52" r="4" fill="#F3F3FA"/>
<circle cx="312.151" cy="68" r="4" fill="#F3F3FA"/>
<circle cx="312.151" cy="84" r="4" fill="#F3F3FA"/>
<circle cx="312.151" cy="100" r="4" fill="#F3F3FA"/>
<circle cx="312.151" cy="116" r="4" fill="#F3F3FA"/>
<circle cx="312.151" cy="132" r="4" fill="#F3F3FA"/>
<circle cx="312.151" cy="148" r="4" fill="#F3F3FA"/>
<circle cx="182.151" cy="4" r="4" fill="#F3F3FA"/>
<circle cx="182.151" cy="20" r="4" fill="#F3F3FA"/>
<circle cx="182.151" cy="36" r="4" fill="#F3F3FA"/>
<circle cx="182.151" cy="52" r="4" fill="#F3F3FA"/>
<circle cx="182.151" cy="68" r="4" fill="#F3F3FA"/>
<circle cx="182.151" cy="84" r="4" fill="#F3F3FA"/>
<circle cx="182.151" cy="100" r="4" fill="#F3F3FA"/>
<circle cx="182.151" cy="116" r="4" fill="#F3F3FA"/>
<circle cx="182.151" cy="132" r="4" fill="#F3F3FA"/>
<circle cx="182.151" cy="148" r="4" fill="#F3F3FA"/>
<circle cx="279.151" cy="4" r="4" fill="#F3F3FA"/>
<circle cx="279.151" cy="20" r="4" fill="#F3F3FA"/>
<circle cx="279.151" cy="36" r="4" fill="#F3F3FA"/>
<circle cx="279.151" cy="52" r="4" fill="#F3F3FA"/>
<circle cx="279.151" cy="68" r="4" fill="#F3F3FA"/>
<circle cx="279.151" cy="84" r="4" fill="#F3F3FA"/>
<circle cx="279.151" cy="100" r="4" fill="#F3F3FA"/>
<circle cx="279.151" cy="116" r="4" fill="#F3F3FA"/>
<circle cx="279.151" cy="132" r="4" fill="#F3F3FA"/>
<circle cx="279.151" cy="148" r="4" fill="#F3F3FA"/>
<circle cx="231.151" cy="4" r="4" fill="#F3F3FA"/>
<circle cx="231.151" cy="20" r="4" fill="#F3F3FA"/>
<circle cx="231.151" cy="36" r="4" fill="#F3F3FA"/>
<circle cx="231.151" cy="52" r="4" fill="#F3F3FA"/>
<circle cx="231.151" cy="68" r="4" fill="#F3F3FA"/>
<circle cx="231.151" cy="84" r="4" fill="#F3F3FA"/>
<circle cx="231.151" cy="100" r="4" fill="#F3F3FA"/>
<circle cx="231.151" cy="116" r="4" fill="#F3F3FA"/>
<circle cx="231.151" cy="132" r="4" fill="#F3F3FA"/>
<circle cx="231.151" cy="148" r="4" fill="#F3F3FA"/>
<circle cx="198.151" cy="4" r="4" fill="#F3F3FA"/>
<circle cx="198.151" cy="20" r="4" fill="#F3F3FA"/>
<circle cx="198.151" cy="36" r="4" fill="#F3F3FA"/>
<circle cx="198.151" cy="52" r="4" fill="#F3F3FA"/>
<circle cx="198.151" cy="68" r="4" fill="#F3F3FA"/>
<circle cx="198.151" cy="84" r="4" fill="#F3F3FA"/>
<circle cx="198.151" cy="100" r="4" fill="#F3F3FA"/>
<circle cx="198.151" cy="116" r="4" fill="#F3F3FA"/>
<circle cx="198.151" cy="132" r="4" fill="#F3F3FA"/>
<circle cx="198.151" cy="148" r="4" fill="#F3F3FA"/>
<circle cx="295.151" cy="4" r="4" fill="#F3F3FA"/>
<circle cx="295.151" cy="20" r="4" fill="#F3F3FA"/>
<circle cx="295.151" cy="36" r="4" fill="#F3F3FA"/>
<circle cx="295.151" cy="52" r="4" fill="#F3F3FA"/>
<circle cx="295.151" cy="68" r="4" fill="#F3F3FA"/>
<circle cx="295.151" cy="84" r="4" fill="#F3F3FA"/>
<circle cx="295.151" cy="100" r="4" fill="#F3F3FA"/>
<circle cx="295.151" cy="116" r="4" fill="#F3F3FA"/>
<circle cx="295.151" cy="132" r="4" fill="#F3F3FA"/>
<circle cx="295.151" cy="148" r="4" fill="#F3F3FA"/>
<circle cx="247.151" cy="4" r="4" fill="#F3F3FA"/>
<circle cx="247.151" cy="20" r="4" fill="#F3F3FA"/>
<circle cx="247.151" cy="36" r="4" fill="#F3F3FA"/>
<circle cx="247.151" cy="52" r="4" fill="#F3F3FA"/>
<circle cx="247.151" cy="68" r="4" fill="#F3F3FA"/>
<circle cx="247.151" cy="84" r="4" fill="#F3F3FA"/>
<circle cx="247.151" cy="100" r="4" fill="#F3F3FA"/>
<circle cx="247.151" cy="116" r="4" fill="#F3F3FA"/>
<circle cx="247.151" cy="132" r="4" fill="#F3F3FA"/>
<circle cx="247.151" cy="148" r="4" fill="#F3F3FA"/>
<circle cx="69.1514" cy="4" r="4" fill="#F3F3FA"/>
<circle cx="69.1514" cy="20" r="4" fill="#F3F3FA"/>
<circle cx="69.1514" cy="36" r="4" fill="#F3F3FA"/>
<circle cx="69.1514" cy="52" r="4" fill="#F3F3FA"/>
<circle cx="69.1514" cy="68" r="4" fill="#F3F3FA"/>
<circle cx="69.1514" cy="84" r="4" fill="#F3F3FA"/>
<circle cx="69.1514" cy="100" r="4" fill="#F3F3FA"/>
<circle cx="69.1514" cy="116" r="4" fill="#F3F3FA"/>
<circle cx="69.1514" cy="132" r="4" fill="#F3F3FA"/>
<circle cx="69.1514" cy="148" r="4" fill="#F3F3FA"/>
<circle cx="166.151" cy="4" r="4" fill="#F3F3FA"/>
<circle cx="166.151" cy="20" r="4" fill="#F3F3FA"/>
<circle cx="166.151" cy="36" r="4" fill="#F3F3FA"/>
<circle cx="166.151" cy="52" r="4" fill="#F3F3FA"/>
<circle cx="166.151" cy="68" r="4" fill="#F3F3FA"/>
<circle cx="166.151" cy="84" r="4" fill="#F3F3FA"/>
<circle cx="166.151" cy="100" r="4" fill="#F3F3FA"/>
<circle cx="166.151" cy="116" r="4" fill="#F3F3FA"/>
<circle cx="166.151" cy="132" r="4" fill="#F3F3FA"/>
<circle cx="166.151" cy="148" r="4" fill="#F3F3FA"/>
<circle cx="118.151" cy="4" r="4" fill="#F3F3FA"/>
<circle cx="118.151" cy="20" r="4" fill="#F3F3FA"/>
<circle cx="118.151" cy="36" r="4" fill="#F3F3FA"/>
<circle cx="118.151" cy="52" r="4" fill="#F3F3FA"/>
<circle cx="118.151" cy="68" r="4" fill="#F3F3FA"/>
<circle cx="118.151" cy="84" r="4" fill="#F3F3FA"/>
<circle cx="118.151" cy="100" r="4" fill="#F3F3FA"/>
<circle cx="118.151" cy="116" r="4" fill="#F3F3FA"/>
<circle cx="118.151" cy="132" r="4" fill="#F3F3FA"/>
<circle cx="118.151" cy="148" r="4" fill="#F3F3FA"/>
<circle cx="215.151" cy="4" r="4" fill="#F3F3FA"/>
<circle cx="215.151" cy="20" r="4" fill="#F3F3FA"/>
<circle cx="215.151" cy="36" r="4" fill="#F3F3FA"/>
<circle cx="215.151" cy="52" r="4" fill="#F3F3FA"/>
<circle cx="215.151" cy="68" r="4" fill="#F3F3FA"/>
<circle cx="215.151" cy="84" r="4" fill="#F3F3FA"/>
<circle cx="215.151" cy="100" r="4" fill="#F3F3FA"/>
<circle cx="215.151" cy="116" r="4" fill="#F3F3FA"/>
<circle cx="215.151" cy="132" r="4" fill="#F3F3FA"/>
<circle cx="215.151" cy="148" r="4" fill="#F3F3FA"/>
<circle cx="85.1514" cy="4" r="4" fill="#F3F3FA"/>
<circle cx="85.1514" cy="20" r="4" fill="#F3F3FA"/>
<circle cx="85.1514" cy="36" r="4" fill="#F3F3FA"/>
<circle cx="85.1514" cy="52" r="4" fill="#F3F3FA"/>
<circle cx="85.1514" cy="68" r="4" fill="#F3F3FA"/>
<circle cx="85.1514" cy="84" r="4" fill="#F3F3FA"/>
<circle cx="85.1514" cy="100" r="4" fill="#F3F3FA"/>
<circle cx="85.1514" cy="116" r="4" fill="#F3F3FA"/>
<circle cx="85.1514" cy="132" r="4" fill="#F3F3FA"/>
<circle cx="85.1514" cy="148" r="4" fill="#F3F3FA"/>
<circle cx="182.151" cy="4" r="4" fill="#F3F3FA"/>
<circle cx="182.151" cy="20" r="4" fill="#F3F3FA"/>
<circle cx="182.151" cy="36" r="4" fill="#F3F3FA"/>
<circle cx="182.151" cy="52" r="4" fill="#F3F3FA"/>
<circle cx="182.151" cy="68" r="4" fill="#F3F3FA"/>
<circle cx="182.151" cy="84" r="4" fill="#F3F3FA"/>
<circle cx="182.151" cy="100" r="4" fill="#F3F3FA"/>
<circle cx="182.151" cy="116" r="4" fill="#F3F3FA"/>
<circle cx="182.151" cy="132" r="4" fill="#F3F3FA"/>
<circle cx="182.151" cy="148" r="4" fill="#F3F3FA"/>
<circle cx="134.151" cy="4" r="4" fill="#F3F3FA"/>
<circle cx="134.151" cy="20" r="4" fill="#F3F3FA"/>
<circle cx="134.151" cy="36" r="4" fill="#F3F3FA"/>
<circle cx="134.151" cy="52" r="4" fill="#F3F3FA"/>
<circle cx="134.151" cy="68" r="4" fill="#F3F3FA"/>
<circle cx="134.151" cy="84" r="4" fill="#F3F3FA"/>
<circle cx="134.151" cy="100" r="4" fill="#F3F3FA"/>
<circle cx="134.151" cy="116" r="4" fill="#F3F3FA"/>
<circle cx="134.151" cy="132" r="4" fill="#F3F3FA"/>
<circle cx="134.151" cy="148" r="4" fill="#F3F3FA"/>
<circle cx="101.151" cy="4" r="4" fill="#F3F3FA"/>
<circle cx="101.151" cy="20" r="4" fill="#F3F3FA"/>
<circle cx="101.151" cy="36" r="4" fill="#F3F3FA"/>
<circle cx="101.151" cy="52" r="4" fill="#F3F3FA"/>
<circle cx="101.151" cy="68" r="4" fill="#F3F3FA"/>
<circle cx="101.151" cy="84" r="4" fill="#F3F3FA"/>
<circle cx="101.151" cy="100" r="4" fill="#F3F3FA"/>
<circle cx="101.151" cy="116" r="4" fill="#F3F3FA"/>
<circle cx="101.151" cy="132" r="4" fill="#F3F3FA"/>
<circle cx="101.151" cy="148" r="4" fill="#F3F3FA"/>
<circle cx="198.151" cy="4" r="4" fill="#F3F3FA"/>
<circle cx="198.151" cy="20" r="4" fill="#F3F3FA"/>
<circle cx="198.151" cy="36" r="4" fill="#F3F3FA"/>
<circle cx="198.151" cy="52" r="4" fill="#F3F3FA"/>
<circle cx="198.151" cy="68" r="4" fill="#F3F3FA"/>
<circle cx="198.151" cy="84" r="4" fill="#F3F3FA"/>
<circle cx="198.151" cy="100" r="4" fill="#F3F3FA"/>
<circle cx="198.151" cy="116" r="4" fill="#F3F3FA"/>
<circle cx="198.151" cy="132" r="4" fill="#F3F3FA"/>
<circle cx="198.151" cy="148" r="4" fill="#F3F3FA"/>
<circle cx="150.151" cy="4" r="4" fill="#F3F3FA"/>
<circle cx="150.151" cy="20" r="4" fill="#F3F3FA"/>
<circle cx="150.151" cy="36" r="4" fill="#F3F3FA"/>
<circle cx="150.151" cy="52" r="4" fill="#F3F3FA"/>
<circle cx="150.151" cy="68" r="4" fill="#F3F3FA"/>
<circle cx="150.151" cy="84" r="4" fill="#F3F3FA"/>
<circle cx="150.151" cy="100" r="4" fill="#F3F3FA"/>
<circle cx="150.151" cy="116" r="4" fill="#F3F3FA"/>
<circle cx="150.151" cy="132" r="4" fill="#F3F3FA"/>
<circle cx="150.151" cy="148" r="4" fill="#F3F3FA"/>
</svg>
