<?xml version="1.0" encoding="UTF-8" standalone="no"?>
<svg
  
   version="1.0"
   width="1000mm"
   height="1000mm"
   viewBox="0 0 2834.6457 2834.6457"
   preserveAspectRatio="xMidYMid meet"
   id="svg16"
   sodipodi:docname="house.svg"
   inkscape:version="1.0.2 (e86c870879, 2021-01-15)">
  <metadata
     id="metadata22">
    <rdf:RDF>
      <cc:Work
         rdf:about="">
        <dc:format>image/svg+xml</dc:format>
        <dc:type
           rdf:resource="http://purl.org/dc/dcmitype/StillImage" />
        <dc:title></dc:title>
      </cc:Work>
    </rdf:RDF>
  </metadata>
  <defs
     id="defs20" />
  <sodipodi:namedview
     pagecolor="#ffffff"
     bordercolor="#666666"
     borderopacity="1"
     objecttolerance="10"
     gridtolerance="10"
     guidetolerance="10"
     inkscape:pageopacity="0"
     inkscape:pageshadow="2"
     inkscape:window-width="1280"
     inkscape:window-height="960"
     id="namedview18"
     showgrid="false"
     inkscape:zoom="0.069461946"
     inkscape:cx="2637.5114"
     inkscape:cy="256.50967"
     inkscape:window-x="0"
     inkscape:window-y="27"
     inkscape:window-maximized="1"
     inkscape:current-layer="g14"
     units="mm"
     width="1000mm" />
  <g
     transform="matrix(0.1,0,0,-0.1,0,496)"
     fill="#000000"
     stroke="none"
     id="g14">
    <g
       id="g26"
       style="fill:#fff;fill-opacity:1"
       transform="matrix(9.4158281,0,0,9.4158281,-3905.1616,-37846.301)">
      <path
         d="M 1725,4465 C 1407,4422 1135,4286 905,4055 695,3846 562,3596 503,3303 c -24,-123 -24,-404 0,-527 59,-294 191,-542 401,-752 207,-206 441,-334 729,-396 147,-32 427,-32 574,0 288,62 522,190 729,396 210,210 342,458 401,752 24,123 24,404 0,527 -99,492 -431,894 -891,1077 -220,87 -483,118 -721,85 z m 384,-161 c 526,-77 952,-482 1067,-1014 26,-119 26,-381 0,-500 -36,-168 -104,-328 -199,-470 -64,-96 -241,-273 -337,-337 -444,-297 -996,-297 -1440,0 -96,64 -273,241 -337,337 -95,142 -163,302 -199,470 -26,119 -26,381 0,500 56,260 181,485 370,668 290,280 677,405 1075,346 z"
         id="path4"
         style="fill:#fff;fill-opacity:1" />
      <path
         d="m 1342,3606 c -310,-222 -569,-409 -575,-415 -13,-13 64,-127 85,-125 8,1 71,42 141,92 l 127,92 v -505 -505 h 800 800 v 505 505 l 127,-92 c 70,-50 133,-91 141,-92 8,-1 33,26 57,59 l 43,60 -575,410 c -316,226 -583,411 -592,412 -9,1 -270,-179 -579,-401 z m 902,-16 316,-225 v -482 -483 h -160 -160 v 320 320 h -320 -320 v -320 -320 h -160 -160 v 483 l 1,482 317,227 c 174,125 320,226 324,225 3,-1 148,-103 322,-227 z m -164,-950 v -240 h -160 -160 v 240 240 h 160 160 z"
         id="path6"
         style="fill:#fff;fill-opacity:1" />
    </g>
  </g>
</svg>
